G04*
G04 #@! TF.GenerationSoftware,Altium Limited,Altium Designer,24.7.2 (38)*
G04*
G04 Layer_Color=8388736*
%FSLAX44Y44*%
%MOMM*%
G71*
G04*
G04 #@! TF.SameCoordinates,3EB35486-9304-4E7F-AAB6-153DF52DCD65*
G04*
G04*
G04 #@! TF.FilePolarity,Negative*
G04*
G01*
G75*
%ADD32R,0.6587X0.8121*%
%ADD33R,0.8121X0.6587*%
%ADD34R,3.2000X1.0000*%
G04:AMPARAMS|DCode=35|XSize=1.8741mm|YSize=0.5421mm|CornerRadius=0.2711mm|HoleSize=0mm|Usage=FLASHONLY|Rotation=90.000|XOffset=0mm|YOffset=0mm|HoleType=Round|Shape=RoundedRectangle|*
%AMROUNDEDRECTD35*
21,1,1.8741,0.0000,0,0,90.0*
21,1,1.3319,0.5421,0,0,90.0*
1,1,0.5421,0.0000,0.6660*
1,1,0.5421,0.0000,-0.6660*
1,1,0.5421,0.0000,-0.6660*
1,1,0.5421,0.0000,0.6660*
%
%ADD35ROUNDEDRECTD35*%
%ADD36R,0.5421X1.8741*%
%ADD37R,1.2000X2.5000*%
%ADD40R,1.0121X1.2578*%
%ADD44R,2.7900X1.1900*%
%ADD46R,1.2062X0.9562*%
%ADD47R,0.9562X1.2062*%
%ADD48R,2.4130X3.4290*%
%ADD50R,0.5200X0.5200*%
%ADD51R,0.8000X0.8000*%
%ADD53R,0.7500X0.9000*%
%ADD55R,3.8100X4.2400*%
G04:AMPARAMS|DCode=56|XSize=1.45mm|YSize=0.3mm|CornerRadius=0.0495mm|HoleSize=0mm|Usage=FLASHONLY|Rotation=180.000|XOffset=0mm|YOffset=0mm|HoleType=Round|Shape=RoundedRectangle|*
%AMROUNDEDRECTD56*
21,1,1.4500,0.2010,0,0,180.0*
21,1,1.3510,0.3000,0,0,180.0*
1,1,0.0990,-0.6755,0.1005*
1,1,0.0990,0.6755,0.1005*
1,1,0.0990,0.6755,-0.1005*
1,1,0.0990,-0.6755,-0.1005*
%
%ADD56ROUNDEDRECTD56*%
G04:AMPARAMS|DCode=57|XSize=1.0043mm|YSize=3.1821mm|CornerRadius=0.4369mm|HoleSize=0mm|Usage=FLASHONLY|Rotation=270.000|XOffset=0mm|YOffset=0mm|HoleType=Round|Shape=RoundedRectangle|*
%AMROUNDEDRECTD57*
21,1,1.0043,2.3084,0,0,270.0*
21,1,0.1306,3.1821,0,0,270.0*
1,1,0.8737,-1.1542,-0.0653*
1,1,0.8737,-1.1542,0.0653*
1,1,0.8737,1.1542,0.0653*
1,1,0.8737,1.1542,-0.0653*
%
%ADD57ROUNDEDRECTD57*%
G04:AMPARAMS|DCode=58|XSize=1.0043mm|YSize=0.8721mm|CornerRadius=0.4361mm|HoleSize=0mm|Usage=FLASHONLY|Rotation=270.000|XOffset=0mm|YOffset=0mm|HoleType=Round|Shape=RoundedRectangle|*
%AMROUNDEDRECTD58*
21,1,1.0043,0.0000,0,0,270.0*
21,1,0.1322,0.8721,0,0,270.0*
1,1,0.8721,0.0000,-0.0661*
1,1,0.8721,0.0000,0.0661*
1,1,0.8721,0.0000,0.0661*
1,1,0.8721,0.0000,-0.0661*
%
%ADD58ROUNDEDRECTD58*%
%ADD59R,0.8721X1.0043*%
%ADD60R,4.2400X3.8100*%
%ADD61R,1.3000X1.3000*%
%ADD62R,1.3000X2.0000*%
%ADD63R,0.8000X0.8000*%
%ADD64R,1.7200X3.2000*%
%ADD65R,1.7272X1.7272*%
%ADD66R,1.7272X1.7272*%
G04:AMPARAMS|DCode=67|XSize=2.1732mm|YSize=0.8032mm|CornerRadius=0.1766mm|HoleSize=0mm|Usage=FLASHONLY|Rotation=180.000|XOffset=0mm|YOffset=0mm|HoleType=Round|Shape=RoundedRectangle|*
%AMROUNDEDRECTD67*
21,1,2.1732,0.4500,0,0,180.0*
21,1,1.8200,0.8032,0,0,180.0*
1,1,0.3532,-0.9100,0.2250*
1,1,0.3532,0.9100,0.2250*
1,1,0.3532,0.9100,-0.2250*
1,1,0.3532,-0.9100,-0.2250*
%
%ADD67ROUNDEDRECTD67*%
%ADD68R,2.6162X3.5052*%
G04:AMPARAMS|DCode=69|XSize=1.7632mm|YSize=0.6032mm|CornerRadius=0.1516mm|HoleSize=0mm|Usage=FLASHONLY|Rotation=90.000|XOffset=0mm|YOffset=0mm|HoleType=Round|Shape=RoundedRectangle|*
%AMROUNDEDRECTD69*
21,1,1.7632,0.3000,0,0,90.0*
21,1,1.4600,0.6032,0,0,90.0*
1,1,0.3032,0.1500,0.7300*
1,1,0.3032,0.1500,-0.7300*
1,1,0.3032,-0.1500,-0.7300*
1,1,0.3032,-0.1500,0.7300*
%
%ADD69ROUNDEDRECTD69*%
%ADD70R,1.4132X0.7932*%
%ADD71R,0.7932X1.4132*%
%ADD72R,2.4032X1.8032*%
%ADD73R,1.8032X2.4032*%
%ADD74R,1.5032X0.6532*%
%ADD75R,1.4232X1.1132*%
%ADD76R,1.0032X1.2032*%
%ADD77R,1.2032X1.0032*%
%ADD78R,2.6032X2.2032*%
%ADD79O,1.9532X0.7532*%
%ADD80O,0.7532X1.9532*%
%ADD81R,1.1532X1.1032*%
%ADD82R,0.8032X0.7532*%
%ADD83R,1.1032X0.9032*%
G04:AMPARAMS|DCode=84|XSize=0.7532mm|YSize=1.0032mm|CornerRadius=0.1511mm|HoleSize=0mm|Usage=FLASHONLY|Rotation=90.000|XOffset=0mm|YOffset=0mm|HoleType=Round|Shape=RoundedRectangle|*
%AMROUNDEDRECTD84*
21,1,0.7532,0.7010,0,0,90.0*
21,1,0.4510,1.0032,0,0,90.0*
1,1,0.3022,0.3505,0.2255*
1,1,0.3022,0.3505,-0.2255*
1,1,0.3022,-0.3505,-0.2255*
1,1,0.3022,-0.3505,0.2255*
%
%ADD84ROUNDEDRECTD84*%
%ADD85C,2.7032*%
%ADD86C,4.2032*%
%ADD87C,2.4532*%
%ADD88R,2.4532X2.4532*%
%ADD89C,5.2032*%
%ADD90C,1.7112*%
%ADD91R,1.7112X1.7112*%
%ADD92O,2.2732X4.3432*%
%ADD93C,3.4032*%
%ADD94O,2.2032X1.6532*%
%ADD95O,2.0032X1.3532*%
%ADD96C,1.0032*%
%ADD97R,2.0032X2.0032*%
%ADD98C,2.0032*%
%ADD99C,1.7272*%
%ADD100C,1.8500*%
%ADD101R,1.8500X1.8500*%
%ADD102R,1.5500X1.5500*%
%ADD103C,1.5500*%
%ADD104C,2.8542*%
%ADD105R,2.8542X2.8542*%
%ADD106C,1.0414*%
D32*
X664627Y471850D02*
D03*
X651093D02*
D03*
X681137Y438830D02*
D03*
X667603D02*
D03*
X330617Y396240D02*
D03*
X317083D02*
D03*
X562610Y119380D02*
D03*
X576144D02*
D03*
X330617Y415290D02*
D03*
X317083D02*
D03*
Y358140D02*
D03*
X330617D02*
D03*
X317083Y377190D02*
D03*
X330617D02*
D03*
X317083Y339090D02*
D03*
X330617D02*
D03*
X96084D02*
D03*
X82550D02*
D03*
X96084Y378883D02*
D03*
X82550D02*
D03*
X96084Y358987D02*
D03*
X82550D02*
D03*
X96084Y398780D02*
D03*
X82550D02*
D03*
D33*
X651510Y439003D02*
D03*
Y452537D02*
D03*
X499110Y82133D02*
D03*
Y95667D02*
D03*
D34*
X336260Y178120D02*
D03*
X268260D02*
D03*
X336260Y218120D02*
D03*
X268260D02*
D03*
D35*
X346710Y306371D02*
D03*
X359410D02*
D03*
X372110D02*
D03*
X384810D02*
D03*
Y260049D02*
D03*
X372110D02*
D03*
X359410D02*
D03*
D36*
X346710D02*
D03*
D37*
X380425Y125752D02*
D03*
Y70752D02*
D03*
X355425D02*
D03*
Y125752D02*
D03*
X405425D02*
D03*
Y70752D02*
D03*
D40*
X638810Y103988D02*
D03*
Y119532D02*
D03*
X612140Y103988D02*
D03*
Y119532D02*
D03*
D44*
X105430Y709930D02*
D03*
X57130Y684530D02*
D03*
Y735330D02*
D03*
D46*
X972820Y879855D02*
D03*
Y900355D02*
D03*
D47*
X1002120Y676910D02*
D03*
X981620D02*
D03*
D48*
X633730Y890270D02*
D03*
X575310D02*
D03*
D50*
X97790Y1066990D02*
D03*
Y1058990D02*
D03*
D51*
X166370Y895350D02*
D03*
Y880350D02*
D03*
D53*
X311500Y303530D02*
D03*
X323500D02*
D03*
X311150Y262890D02*
D03*
X323150D02*
D03*
D55*
X988060Y622400D02*
D03*
Y558700D02*
D03*
D56*
X337410Y440850D02*
D03*
Y445850D02*
D03*
Y450850D02*
D03*
Y455850D02*
D03*
Y460850D02*
D03*
X381410D02*
D03*
Y455850D02*
D03*
Y450850D02*
D03*
Y445850D02*
D03*
Y440850D02*
D03*
D57*
X989330Y776110D02*
D03*
D58*
X966430Y842010D02*
D03*
X989330D02*
D03*
D59*
X1012230D02*
D03*
D60*
X906780Y894080D02*
D03*
X843080D02*
D03*
D61*
X402150Y871150D02*
D03*
Y894150D02*
D03*
D62*
X347150Y882650D02*
D03*
D63*
X196730Y867410D02*
D03*
X181730D02*
D03*
D64*
X734360Y891540D02*
D03*
X670260D02*
D03*
D65*
X57150Y604520D02*
D03*
D66*
Y557530D02*
D03*
D67*
X287640Y869950D02*
D03*
Y882650D02*
D03*
Y895350D02*
D03*
Y908050D02*
D03*
X238140D02*
D03*
Y895350D02*
D03*
Y882650D02*
D03*
Y869950D02*
D03*
D68*
X262890Y889000D02*
D03*
D69*
X113440Y1121000D02*
D03*
X119940D02*
D03*
X126440D02*
D03*
X132940D02*
D03*
Y1063400D02*
D03*
X126440D02*
D03*
X119940D02*
D03*
X113440D02*
D03*
D70*
X498960Y894080D02*
D03*
Y903580D02*
D03*
Y884580D02*
D03*
X473860D02*
D03*
Y894080D02*
D03*
Y903580D02*
D03*
D71*
X86970Y1103480D02*
D03*
X77470D02*
D03*
X67970D02*
D03*
Y1078380D02*
D03*
X86970D02*
D03*
X77470D02*
D03*
D72*
X1006870Y722630D02*
D03*
X976870D02*
D03*
X38340Y1014730D02*
D03*
X68340D02*
D03*
D73*
X788670Y881620D02*
D03*
Y911620D02*
D03*
X946150Y1115300D02*
D03*
Y1145300D02*
D03*
D74*
X63290Y928220D02*
D03*
Y934720D02*
D03*
Y941220D02*
D03*
Y921720D02*
D03*
Y947720D02*
D03*
D75*
X699770Y471690D02*
D03*
Y438990D02*
D03*
D76*
X369690Y45720D02*
D03*
X384690D02*
D03*
X78860Y1125220D02*
D03*
X93860D02*
D03*
X310000Y882650D02*
D03*
X325000D02*
D03*
X488830Y864870D02*
D03*
X473830D02*
D03*
X445770Y894080D02*
D03*
X430770D02*
D03*
D77*
X459740Y431920D02*
D03*
Y446920D02*
D03*
X502920Y431920D02*
D03*
Y446920D02*
D03*
X558800Y432040D02*
D03*
Y447040D02*
D03*
X609600Y430530D02*
D03*
Y445530D02*
D03*
D78*
X283210Y302890D02*
D03*
Y262890D02*
D03*
D79*
X155590Y338460D02*
D03*
X155590Y346460D02*
D03*
X155590Y354460D02*
D03*
X155590Y362460D02*
D03*
X155590Y370460D02*
D03*
X155590Y378460D02*
D03*
X155590Y386460D02*
D03*
X155590Y394460D02*
D03*
X155590Y402460D02*
D03*
X155590Y410460D02*
D03*
Y418460D02*
D03*
X268590Y418460D02*
D03*
X268590Y410460D02*
D03*
X268590Y402460D02*
D03*
X268590Y394460D02*
D03*
X268590Y386460D02*
D03*
X268590Y378460D02*
D03*
X268590Y370460D02*
D03*
X268590Y362460D02*
D03*
X268590Y354460D02*
D03*
X268590Y346460D02*
D03*
X268590Y338460D02*
D03*
D80*
X172090Y434960D02*
D03*
X180090D02*
D03*
X188090Y434960D02*
D03*
X196090Y434960D02*
D03*
X204090Y434960D02*
D03*
X212090Y434960D02*
D03*
X220090Y434960D02*
D03*
X228090Y434960D02*
D03*
X236090Y434960D02*
D03*
X244090Y434960D02*
D03*
X252090Y434960D02*
D03*
Y321960D02*
D03*
X244090Y321960D02*
D03*
X236090Y321960D02*
D03*
X228090Y321960D02*
D03*
X220090Y321960D02*
D03*
X212090Y321960D02*
D03*
X204090Y321960D02*
D03*
X196090Y321960D02*
D03*
X188090Y321960D02*
D03*
X180090Y321960D02*
D03*
X172090Y321960D02*
D03*
D81*
X993140Y874520D02*
D03*
Y906020D02*
D03*
D82*
X84700Y1059180D02*
D03*
X76200D02*
D03*
X216780Y882650D02*
D03*
X208280D02*
D03*
X215900Y895350D02*
D03*
X207400D02*
D03*
D83*
X104140Y1014730D02*
D03*
Y999730D02*
D03*
D84*
X551130Y98400D02*
D03*
Y88900D02*
D03*
Y79400D02*
D03*
X576630D02*
D03*
Y98400D02*
D03*
D85*
X944880Y278030D02*
D03*
X843280D02*
D03*
X944880Y379630D02*
D03*
X843280D02*
D03*
X709930D02*
D03*
X811530D02*
D03*
X709930Y278030D02*
D03*
X811530D02*
D03*
D86*
X894080Y341630D02*
D03*
X760730D02*
D03*
D87*
X530860Y325120D02*
D03*
X497840Y267970D02*
D03*
X563880D02*
D03*
X638060Y315720D02*
D03*
X609360Y365520D02*
D03*
X559560Y394220D02*
D03*
X502160D02*
D03*
X452360Y365520D02*
D03*
X423660Y315720D02*
D03*
Y258320D02*
D03*
X452360Y208520D02*
D03*
X502160Y179820D02*
D03*
X559560D02*
D03*
X609360Y208520D02*
D03*
D88*
X638060Y258320D02*
D03*
D89*
X905351Y513138D02*
D03*
X155351D02*
D03*
X905351Y823138D02*
D03*
X155351D02*
D03*
D90*
X591351Y828139D02*
D03*
X565951D02*
D03*
X540551D02*
D03*
X515151D02*
D03*
X489751D02*
D03*
X464351D02*
D03*
X438951D02*
D03*
X413551D02*
D03*
X388151D02*
D03*
X362751D02*
D03*
X337351D02*
D03*
X311951D02*
D03*
X286551D02*
D03*
X261151D02*
D03*
X235751D02*
D03*
D91*
X210351D02*
D03*
D92*
X895130Y1040130D02*
D03*
X166130D02*
D03*
D93*
X810180D02*
D03*
X254030D02*
D03*
D94*
X63290Y971970D02*
D03*
Y897470D02*
D03*
D95*
X25290Y973470D02*
D03*
Y895970D02*
D03*
D96*
X52790Y909720D02*
D03*
Y959720D02*
D03*
D97*
X171450Y246380D02*
D03*
D98*
Y220980D02*
D03*
X146050Y246380D02*
D03*
Y220980D02*
D03*
X120650Y246380D02*
D03*
Y220980D02*
D03*
X95250Y246380D02*
D03*
Y220980D02*
D03*
X69850Y246380D02*
D03*
Y220980D02*
D03*
X1013460Y33020D02*
D03*
X30480Y30480D02*
D03*
Y1146810D02*
D03*
X1014730D02*
D03*
D99*
X146050Y918210D02*
D03*
D100*
X808520Y455770D02*
D03*
D101*
X908520Y435770D02*
D03*
D102*
X35730Y1089460D02*
D03*
X1009650Y472040D02*
D03*
D103*
X35730Y1064460D02*
D03*
X1009650Y447040D02*
D03*
D104*
X979170Y1056640D02*
D03*
Y1009650D02*
D03*
D105*
Y962660D02*
D03*
D106*
X57150Y627380D02*
D03*
Y666750D02*
D03*
X662940Y405130D02*
D03*
X132080Y409621D02*
D03*
X123190Y419100D02*
D03*
X176530Y396113D02*
D03*
X191236Y402056D02*
D03*
X289560Y329057D02*
D03*
X312420Y784860D02*
D03*
X561340Y807720D02*
D03*
X229870Y356870D02*
D03*
X212090Y416687D02*
D03*
X31750Y387018D02*
D03*
X441960Y100330D02*
D03*
X457200Y144780D02*
D03*
X483870Y102870D02*
D03*
X337820Y236220D02*
D03*
X544830Y119380D02*
D03*
X77470Y447040D02*
D03*
X54610Y207010D02*
D03*
X73660Y424180D02*
D03*
X27940Y675640D02*
D03*
X363220Y995680D02*
D03*
X530860Y236220D02*
D03*
X709930Y223520D02*
D03*
X379730Y162560D02*
D03*
X297180Y85090D02*
D03*
X554990Y317500D02*
D03*
X420370Y71120D02*
D03*
X527050Y88900D02*
D03*
X393700Y416560D02*
D03*
X384810Y381000D02*
D03*
X237490Y640080D02*
D03*
X316230Y450850D02*
D03*
X303530Y461010D02*
D03*
X473710Y386080D02*
D03*
X612140Y314960D02*
D03*
X624840Y182880D02*
D03*
X194310Y162560D02*
D03*
X189230Y262890D02*
D03*
X256540D02*
D03*
X257810Y302260D02*
D03*
X215900Y290830D02*
D03*
X227073Y302260D02*
D03*
X231140Y262890D02*
D03*
X209550Y180340D02*
D03*
X160020Y262890D02*
D03*
X156210Y314960D02*
D03*
X158750Y1098550D02*
D03*
X595630Y944880D02*
D03*
X473710Y918210D02*
D03*
X317500Y904240D02*
D03*
X311150Y859790D02*
D03*
X287020Y920750D02*
D03*
X120650Y947420D02*
D03*
M02*
