G04*
G04 #@! TF.GenerationSoftware,Altium Limited,Altium Designer,24.7.2 (38)*
G04*
G04 Layer_Color=16711935*
%FSLAX44Y44*%
%MOMM*%
G71*
G04*
G04 #@! TF.SameCoordinates,3EB35486-9304-4E7F-AAB6-153DF52DCD65*
G04*
G04*
G04 #@! TF.FilePolarity,Negative*
G04*
G01*
G75*
%ADD85C,2.7032*%
%ADD86C,4.2032*%
%ADD87C,2.4532*%
%ADD88R,2.4532X2.4532*%
%ADD89C,5.2032*%
%ADD90C,1.7112*%
%ADD91R,1.7112X1.7112*%
%ADD92O,2.2732X4.3432*%
%ADD93C,3.4032*%
%ADD94O,2.2032X1.6532*%
%ADD95O,2.0032X1.3532*%
%ADD96C,1.0032*%
%ADD97R,2.0032X2.0032*%
%ADD98C,2.0032*%
%ADD99C,1.7272*%
%ADD100C,1.8500*%
%ADD101R,1.8500X1.8500*%
%ADD102R,1.5500X1.5500*%
%ADD103C,1.5500*%
%ADD104C,2.8542*%
%ADD105R,2.8542X2.8542*%
%ADD106C,1.0414*%
D85*
X944880Y278030D02*
D03*
X843280D02*
D03*
X944880Y379630D02*
D03*
X843280D02*
D03*
X709930D02*
D03*
X811530D02*
D03*
X709930Y278030D02*
D03*
X811530D02*
D03*
D86*
X894080Y341630D02*
D03*
X760730D02*
D03*
D87*
X530860Y325120D02*
D03*
X497840Y267970D02*
D03*
X563880D02*
D03*
X638060Y315720D02*
D03*
X609360Y365520D02*
D03*
X559560Y394220D02*
D03*
X502160D02*
D03*
X452360Y365520D02*
D03*
X423660Y315720D02*
D03*
Y258320D02*
D03*
X452360Y208520D02*
D03*
X502160Y179820D02*
D03*
X559560D02*
D03*
X609360Y208520D02*
D03*
D88*
X638060Y258320D02*
D03*
D89*
X905351Y513138D02*
D03*
X155351D02*
D03*
X905351Y823138D02*
D03*
X155351D02*
D03*
D90*
X591351Y828139D02*
D03*
X565951D02*
D03*
X540551D02*
D03*
X515151D02*
D03*
X489751D02*
D03*
X464351D02*
D03*
X438951D02*
D03*
X413551D02*
D03*
X388151D02*
D03*
X362751D02*
D03*
X337351D02*
D03*
X311951D02*
D03*
X286551D02*
D03*
X261151D02*
D03*
X235751D02*
D03*
D91*
X210351D02*
D03*
D92*
X895130Y1040130D02*
D03*
X166130D02*
D03*
D93*
X810180D02*
D03*
X254030D02*
D03*
D94*
X63290Y971970D02*
D03*
Y897470D02*
D03*
D95*
X25290Y973470D02*
D03*
Y895970D02*
D03*
D96*
X52790Y909720D02*
D03*
Y959720D02*
D03*
D97*
X171450Y246380D02*
D03*
D98*
Y220980D02*
D03*
X146050Y246380D02*
D03*
Y220980D02*
D03*
X120650Y246380D02*
D03*
Y220980D02*
D03*
X95250Y246380D02*
D03*
Y220980D02*
D03*
X69850Y246380D02*
D03*
Y220980D02*
D03*
X1013460Y33020D02*
D03*
X30480Y30480D02*
D03*
Y1146810D02*
D03*
X1014730D02*
D03*
D99*
X146050Y918210D02*
D03*
D100*
X808520Y455770D02*
D03*
D101*
X908520Y435770D02*
D03*
D102*
X35730Y1089460D02*
D03*
X1009650Y472040D02*
D03*
D103*
X35730Y1064460D02*
D03*
X1009650Y447040D02*
D03*
D104*
X979170Y1056640D02*
D03*
Y1009650D02*
D03*
D105*
Y962660D02*
D03*
D106*
X57150Y627380D02*
D03*
Y666750D02*
D03*
X662940Y405130D02*
D03*
X132080Y409621D02*
D03*
X123190Y419100D02*
D03*
X176530Y396113D02*
D03*
X191236Y402056D02*
D03*
X289560Y329057D02*
D03*
X312420Y784860D02*
D03*
X561340Y807720D02*
D03*
X229870Y356870D02*
D03*
X212090Y416687D02*
D03*
X31750Y387018D02*
D03*
X441960Y100330D02*
D03*
X457200Y144780D02*
D03*
X483870Y102870D02*
D03*
X337820Y236220D02*
D03*
X544830Y119380D02*
D03*
X77470Y447040D02*
D03*
X54610Y207010D02*
D03*
X73660Y424180D02*
D03*
X27940Y675640D02*
D03*
X363220Y995680D02*
D03*
X530860Y236220D02*
D03*
X709930Y223520D02*
D03*
X379730Y162560D02*
D03*
X297180Y85090D02*
D03*
X554990Y317500D02*
D03*
X420370Y71120D02*
D03*
X527050Y88900D02*
D03*
X393700Y416560D02*
D03*
X384810Y381000D02*
D03*
X237490Y640080D02*
D03*
X316230Y450850D02*
D03*
X303530Y461010D02*
D03*
X473710Y386080D02*
D03*
X612140Y314960D02*
D03*
X624840Y182880D02*
D03*
X194310Y162560D02*
D03*
X189230Y262890D02*
D03*
X256540D02*
D03*
X257810Y302260D02*
D03*
X215900Y290830D02*
D03*
X227073Y302260D02*
D03*
X231140Y262890D02*
D03*
X209550Y180340D02*
D03*
X160020Y262890D02*
D03*
X156210Y314960D02*
D03*
X158750Y1098550D02*
D03*
X595630Y944880D02*
D03*
X473710Y918210D02*
D03*
X317500Y904240D02*
D03*
X311150Y859790D02*
D03*
X287020Y920750D02*
D03*
X120650Y947420D02*
D03*
M02*
