G04*
G04 #@! TF.GenerationSoftware,Altium Limited,Altium Designer,24.7.2 (38)*
G04*
G04 Layer_Physical_Order=2*
G04 Layer_Color=16711680*
%FSLAX44Y44*%
%MOMM*%
G71*
G04*
G04 #@! TF.SameCoordinates,3EB35486-9304-4E7F-AAB6-153DF52DCD65*
G04*
G04*
G04 #@! TF.FilePolarity,Positive*
G04*
G01*
G75*
%ADD100C,1.8500*%
%ADD101R,1.8500X1.8500*%
%ADD102R,1.5500X1.5500*%
%ADD103C,1.5500*%
%ADD104C,2.8542*%
%ADD105R,2.8542X2.8542*%
%ADD108C,0.4572*%
%ADD109C,0.8128*%
%ADD112C,2.5000*%
%ADD113C,4.0000*%
%ADD114C,2.2500*%
%ADD115R,2.2500X2.2500*%
%ADD116C,5.0000*%
%ADD117C,1.5080*%
%ADD118R,1.5080X1.5080*%
%ADD119O,2.0700X4.1400*%
%ADD120C,3.2000*%
%ADD121O,2.0000X1.4500*%
%ADD122O,1.8000X1.1500*%
%ADD123C,0.8000*%
%ADD124R,1.8000X1.8000*%
%ADD125C,1.8000*%
%ADD126C,1.5240*%
%ADD127C,0.8382*%
G36*
X1027123Y1175826D02*
X1031745Y1173911D01*
X1035906Y1171131D01*
X1039443Y1167594D01*
X1042223Y1163433D01*
X1044138Y1158811D01*
X1045114Y1153904D01*
Y1151402D01*
Y24912D01*
Y22410D01*
X1044138Y17503D01*
X1042223Y12881D01*
X1039443Y8720D01*
X1035906Y5182D01*
X1031745Y2403D01*
X1027123Y488D01*
X1022216Y-488D01*
X1003242D01*
X998335Y488D01*
X993712Y2403D01*
X989552Y5182D01*
X986014Y8720D01*
X983235Y12881D01*
X981320Y17503D01*
X980344Y22410D01*
Y35072D01*
X980222Y37562D01*
X979250Y42445D01*
X977345Y47045D01*
X974578Y51185D01*
X971058Y54706D01*
X966917Y57473D01*
X962317Y59378D01*
X957434Y60350D01*
X954944Y60472D01*
X843492D01*
X842217Y60409D01*
X839716Y59912D01*
X837360Y58936D01*
X835240Y57519D01*
X834294Y56662D01*
X833690Y56058D01*
X832270Y55109D01*
X830691Y54455D01*
X829016Y54122D01*
X824196D01*
X821827Y54593D01*
X819595Y55518D01*
X817586Y56860D01*
X816732Y57714D01*
X816732Y57714D01*
X816731Y57715D01*
X816514Y57932D01*
X815888Y58500D01*
X815883Y58503D01*
X815829Y58540D01*
X814470Y59448D01*
X812899Y60099D01*
X811232Y60430D01*
X810382Y60472D01*
X725074D01*
X722584Y60350D01*
X717701Y59378D01*
X713101Y57473D01*
X708960Y54706D01*
X705440Y51185D01*
X702673Y47045D01*
X700768Y42445D01*
X699796Y37562D01*
X699674Y35072D01*
Y22410D01*
X698698Y17503D01*
X696783Y12881D01*
X694003Y8720D01*
X690465Y5182D01*
X686305Y2403D01*
X681683Y488D01*
X676776Y-488D01*
X22802D01*
X17895Y488D01*
X13273Y2403D01*
X9112Y5182D01*
X5574Y8720D01*
X2795Y12881D01*
X880Y17503D01*
X-96Y22410D01*
Y27452D01*
X0Y1139007D01*
Y1153904D01*
X976Y1158811D01*
X2891Y1163433D01*
X5670Y1167594D01*
X9208Y1171131D01*
X13369Y1173911D01*
X17991Y1175826D01*
X22898Y1176802D01*
X1022216D01*
X1027123Y1175826D01*
D02*
G37*
%LPC*%
G36*
X1016704Y1166850D02*
X1012756D01*
X1008885Y1166080D01*
X1005238Y1164569D01*
X1001955Y1162376D01*
X999164Y1159585D01*
X996971Y1156302D01*
X995460Y1152655D01*
X994690Y1148784D01*
Y1144836D01*
X995460Y1140965D01*
X996971Y1137318D01*
X999164Y1134035D01*
X1001955Y1131244D01*
X1005238Y1129051D01*
X1008885Y1127540D01*
X1012756Y1126770D01*
X1016704D01*
X1020575Y1127540D01*
X1024222Y1129051D01*
X1027505Y1131244D01*
X1030296Y1134035D01*
X1032489Y1137318D01*
X1034000Y1140965D01*
X1034770Y1144836D01*
Y1148784D01*
X1034000Y1152655D01*
X1032489Y1156302D01*
X1030296Y1159585D01*
X1027505Y1162376D01*
X1024222Y1164569D01*
X1020575Y1166080D01*
X1016704Y1166850D01*
D02*
G37*
G36*
X32454D02*
X28506D01*
X24634Y1166080D01*
X20988Y1164569D01*
X17705Y1162376D01*
X14914Y1159585D01*
X12721Y1156302D01*
X11210Y1152655D01*
X10440Y1148784D01*
Y1144836D01*
X11210Y1140965D01*
X12721Y1137318D01*
X14914Y1134035D01*
X17705Y1131244D01*
X20988Y1129051D01*
X24634Y1127540D01*
X28506Y1126770D01*
X32454D01*
X36326Y1127540D01*
X39973Y1129051D01*
X43255Y1131244D01*
X46046Y1134035D01*
X48239Y1137318D01*
X49750Y1140965D01*
X50520Y1144836D01*
Y1148784D01*
X49750Y1152655D01*
X48239Y1156302D01*
X46046Y1159585D01*
X43255Y1162376D01*
X39973Y1164569D01*
X36326Y1166080D01*
X32454Y1166850D01*
D02*
G37*
G36*
X47290Y1101020D02*
X24170D01*
Y1077900D01*
X47290D01*
Y1101020D01*
D02*
G37*
G36*
X37252Y1076020D02*
X34208D01*
X31268Y1075232D01*
X28632Y1073710D01*
X26480Y1071558D01*
X24958Y1068922D01*
X24170Y1065982D01*
Y1062938D01*
X24958Y1059998D01*
X26480Y1057362D01*
X28632Y1055210D01*
X31268Y1053688D01*
X34208Y1052900D01*
X37252D01*
X40192Y1053688D01*
X42828Y1055210D01*
X44981Y1057362D01*
X46502Y1059998D01*
X47290Y1062938D01*
Y1065982D01*
X46502Y1068922D01*
X44981Y1071558D01*
X42828Y1073710D01*
X40192Y1075232D01*
X37252Y1076020D01*
D02*
G37*
G36*
X980951Y1074721D02*
X977389D01*
X973896Y1074026D01*
X970605Y1072663D01*
X967644Y1070684D01*
X965126Y1068166D01*
X963147Y1065204D01*
X961784Y1061914D01*
X961089Y1058421D01*
Y1054859D01*
X961784Y1051366D01*
X963147Y1048075D01*
X965126Y1045114D01*
X967644Y1042596D01*
X970605Y1040617D01*
X973896Y1039254D01*
X977389Y1038559D01*
X980951D01*
X984444Y1039254D01*
X987735Y1040617D01*
X990696Y1042596D01*
X993214Y1045114D01*
X995193Y1048075D01*
X996556Y1051366D01*
X997251Y1054859D01*
Y1058421D01*
X996556Y1061914D01*
X995193Y1065204D01*
X993214Y1068166D01*
X990696Y1070684D01*
X987735Y1072663D01*
X984444Y1074026D01*
X980951Y1074721D01*
D02*
G37*
G36*
X812006Y1058670D02*
X808354D01*
X804772Y1057958D01*
X801398Y1056560D01*
X798361Y1054531D01*
X795779Y1051949D01*
X793750Y1048912D01*
X792352Y1045538D01*
X791640Y1041956D01*
Y1038304D01*
X792352Y1034722D01*
X793750Y1031348D01*
X795779Y1028311D01*
X798361Y1025729D01*
X801398Y1023700D01*
X804772Y1022302D01*
X808354Y1021590D01*
X812006D01*
X815588Y1022302D01*
X818962Y1023700D01*
X821998Y1025729D01*
X824581Y1028311D01*
X826610Y1031348D01*
X828007Y1034722D01*
X828720Y1038304D01*
Y1041956D01*
X828007Y1045538D01*
X826610Y1048912D01*
X824581Y1051949D01*
X821998Y1054531D01*
X818962Y1056560D01*
X815588Y1057958D01*
X812006Y1058670D01*
D02*
G37*
G36*
X255856D02*
X252204D01*
X248622Y1057958D01*
X245248Y1056560D01*
X242211Y1054531D01*
X239629Y1051949D01*
X237600Y1048912D01*
X236202Y1045538D01*
X235490Y1041956D01*
Y1038304D01*
X236202Y1034722D01*
X237600Y1031348D01*
X239629Y1028311D01*
X242211Y1025729D01*
X245248Y1023700D01*
X248622Y1022302D01*
X252204Y1021590D01*
X255856D01*
X259438Y1022302D01*
X262812Y1023700D01*
X265849Y1025729D01*
X268431Y1028311D01*
X270460Y1031348D01*
X271857Y1034722D01*
X272570Y1038304D01*
Y1041956D01*
X271857Y1045538D01*
X270460Y1048912D01*
X268431Y1051949D01*
X265849Y1054531D01*
X262812Y1056560D01*
X259438Y1057958D01*
X255856Y1058670D01*
D02*
G37*
G36*
X895130Y1064762D02*
X891433Y1064276D01*
X887989Y1062849D01*
X885031Y1060579D01*
X882761Y1057621D01*
X881335Y1054176D01*
X880848Y1050480D01*
Y1029780D01*
X881335Y1026084D01*
X882761Y1022639D01*
X885031Y1019681D01*
X887989Y1017411D01*
X891433Y1015984D01*
X895130Y1015498D01*
X898827Y1015984D01*
X902271Y1017411D01*
X905229Y1019681D01*
X907499Y1022639D01*
X908925Y1026084D01*
X909412Y1029780D01*
Y1050480D01*
X908925Y1054176D01*
X907499Y1057621D01*
X905229Y1060579D01*
X902271Y1062849D01*
X898827Y1064276D01*
X895130Y1064762D01*
D02*
G37*
G36*
X166130D02*
X162434Y1064276D01*
X158989Y1062849D01*
X156031Y1060579D01*
X153762Y1057621D01*
X152335Y1054176D01*
X151848Y1050480D01*
Y1029780D01*
X152335Y1026084D01*
X153762Y1022639D01*
X156031Y1019681D01*
X158989Y1017411D01*
X162434Y1015984D01*
X166130Y1015498D01*
X169827Y1015984D01*
X173271Y1017411D01*
X176229Y1019681D01*
X178499Y1022639D01*
X179926Y1026084D01*
X180412Y1029780D01*
Y1050480D01*
X179926Y1054176D01*
X178499Y1057621D01*
X176229Y1060579D01*
X173271Y1062849D01*
X169827Y1064276D01*
X166130Y1064762D01*
D02*
G37*
G36*
X980951Y1027731D02*
X977389D01*
X973896Y1027036D01*
X970605Y1025673D01*
X967644Y1023694D01*
X965126Y1021176D01*
X964349Y1020014D01*
X963423Y1019518D01*
X961526Y1018671D01*
X959547Y1017953D01*
X958285Y1017592D01*
X939800D01*
X937745Y1017321D01*
X935829Y1016528D01*
X934184Y1015266D01*
X934184Y1015266D01*
X922540Y1003622D01*
X364494D01*
X364273Y1003681D01*
X362167D01*
X360132Y1003136D01*
X358307Y1002082D01*
X356818Y1000593D01*
X355764Y998768D01*
X355219Y996733D01*
Y994627D01*
X355764Y992592D01*
X356818Y990767D01*
X358307Y989278D01*
X360132Y988224D01*
X362167Y987679D01*
X364273D01*
X364494Y987738D01*
X925830D01*
X925830Y987738D01*
X927886Y988009D01*
X929801Y988802D01*
X931446Y990064D01*
X943090Y1001708D01*
X958285D01*
X959547Y1001347D01*
X961525Y1000629D01*
X963423Y999782D01*
X964349Y999286D01*
X965126Y998124D01*
X967644Y995606D01*
X970605Y993627D01*
X973896Y992264D01*
X977389Y991569D01*
X980951D01*
X984444Y992264D01*
X987735Y993627D01*
X990696Y995606D01*
X993214Y998124D01*
X995193Y1001086D01*
X996556Y1004376D01*
X997251Y1007869D01*
Y1011431D01*
X996556Y1014924D01*
X995193Y1018214D01*
X993214Y1021176D01*
X990696Y1023694D01*
X987735Y1025673D01*
X984444Y1027036D01*
X980951Y1027731D01*
D02*
G37*
G36*
X28540Y983113D02*
X22040D01*
X19544Y982784D01*
X17219Y981821D01*
X15222Y980288D01*
X13689Y978291D01*
X12726Y975966D01*
X12397Y973470D01*
X12726Y970975D01*
X13689Y968649D01*
X15222Y966652D01*
X17219Y965120D01*
X19544Y964156D01*
X22040Y963828D01*
X28540D01*
X31035Y964156D01*
X33361Y965120D01*
X35358Y966652D01*
X36890Y968649D01*
X37854Y970975D01*
X38182Y973470D01*
X37854Y975966D01*
X36890Y978291D01*
X35358Y980288D01*
X33361Y981821D01*
X31035Y982784D01*
X28540Y983113D01*
D02*
G37*
G36*
X66040Y983126D02*
X60540D01*
X57653Y982745D01*
X54963Y981631D01*
X52652Y979858D01*
X50879Y977548D01*
X49765Y974857D01*
X49385Y971970D01*
X49765Y969083D01*
X50543Y967204D01*
X50286Y965916D01*
X49889Y965597D01*
X48774Y964954D01*
X47557Y963736D01*
X46695Y962245D01*
X46250Y960581D01*
Y958859D01*
X46695Y957196D01*
X47557Y955704D01*
X48774Y954487D01*
X50265Y953626D01*
X51929Y953180D01*
X53651D01*
X55314Y953626D01*
X56806Y954487D01*
X58023Y955704D01*
X58884Y957196D01*
X59330Y958859D01*
Y959693D01*
X60501Y960820D01*
X60540Y960815D01*
X66040D01*
X68927Y961195D01*
X71618Y962309D01*
X73928Y964082D01*
X75701Y966392D01*
X76816Y969083D01*
X77196Y971970D01*
X76816Y974857D01*
X75701Y977548D01*
X73928Y979858D01*
X71618Y981631D01*
X68927Y982745D01*
X66040Y983126D01*
D02*
G37*
G36*
X596683Y952881D02*
X594577D01*
X592542Y952336D01*
X590717Y951282D01*
X590530Y951095D01*
X500380D01*
X498001Y950622D01*
X495985Y949275D01*
X472921Y926211D01*
X472657D01*
X470622Y925666D01*
X468797Y924612D01*
X467308Y923123D01*
X466254Y921298D01*
X465709Y919263D01*
Y917157D01*
X466254Y915122D01*
X467308Y913297D01*
X468797Y911808D01*
X470622Y910754D01*
X472657Y910209D01*
X474763D01*
X476798Y910754D01*
X478623Y911808D01*
X480112Y913297D01*
X481166Y915122D01*
X481711Y917157D01*
Y917421D01*
X502954Y938665D01*
X590530D01*
X590717Y938478D01*
X592542Y937424D01*
X594577Y936879D01*
X596683D01*
X598718Y937424D01*
X600543Y938478D01*
X602032Y939967D01*
X603086Y941792D01*
X603631Y943827D01*
Y945933D01*
X603086Y947968D01*
X602032Y949793D01*
X600543Y951282D01*
X598718Y952336D01*
X596683Y952881D01*
D02*
G37*
G36*
X121703Y955421D02*
X119597D01*
X117562Y954876D01*
X115737Y953822D01*
X114248Y952333D01*
X113194Y950508D01*
X112649Y948473D01*
Y946367D01*
X113194Y944332D01*
X114248Y942507D01*
X115737Y941018D01*
X117562Y939964D01*
X119597Y939419D01*
X121703D01*
X123738Y939964D01*
X125563Y941018D01*
X125750Y941205D01*
X271745D01*
X280805Y932145D01*
Y925850D01*
X280618Y925663D01*
X279564Y923838D01*
X279019Y921803D01*
Y919697D01*
X279564Y917662D01*
X280618Y915837D01*
X282107Y914348D01*
X283932Y913294D01*
X285967Y912749D01*
X288073D01*
X290108Y913294D01*
X291933Y914348D01*
X293422Y915837D01*
X294476Y917662D01*
X295021Y919697D01*
Y921803D01*
X294476Y923838D01*
X293422Y925663D01*
X293235Y925850D01*
Y934720D01*
X292762Y937098D01*
X291415Y939115D01*
X278715Y951815D01*
X276699Y953162D01*
X274320Y953635D01*
X125750D01*
X125563Y953822D01*
X123738Y954876D01*
X121703Y955421D01*
D02*
G37*
G36*
X28540Y905612D02*
X22040D01*
X19544Y905284D01*
X17219Y904320D01*
X15222Y902788D01*
X13689Y900791D01*
X12726Y898465D01*
X12397Y895970D01*
X12726Y893474D01*
X13689Y891149D01*
X15222Y889152D01*
X17219Y887619D01*
X19544Y886656D01*
X22040Y886327D01*
X28540D01*
X31035Y886656D01*
X33361Y887619D01*
X35358Y889152D01*
X36890Y891149D01*
X37854Y893474D01*
X38182Y895970D01*
X37854Y898465D01*
X36890Y900791D01*
X35358Y902788D01*
X33361Y904320D01*
X31035Y905284D01*
X28540Y905612D01*
D02*
G37*
G36*
X53651Y916260D02*
X51929D01*
X50265Y915814D01*
X48774Y914953D01*
X47557Y913736D01*
X46695Y912244D01*
X46250Y910581D01*
Y908859D01*
X46695Y907195D01*
X47557Y905704D01*
X48774Y904486D01*
X49889Y903843D01*
X50286Y903524D01*
X50543Y902236D01*
X49765Y900357D01*
X49385Y897470D01*
X49765Y894583D01*
X50879Y891892D01*
X52652Y889582D01*
X54963Y887809D01*
X57653Y886695D01*
X60540Y886314D01*
X66040D01*
X68927Y886695D01*
X71618Y887809D01*
X73928Y889582D01*
X75701Y891892D01*
X76816Y894583D01*
X77196Y897470D01*
X76816Y900357D01*
X75701Y903048D01*
X73928Y905358D01*
X71618Y907131D01*
X68927Y908245D01*
X66040Y908625D01*
X60540D01*
X60501Y908620D01*
X59330Y909747D01*
Y910581D01*
X58884Y912244D01*
X58023Y913736D01*
X56806Y914953D01*
X55314Y915814D01*
X53651Y916260D01*
D02*
G37*
G36*
X567445Y839489D02*
X564457D01*
X561570Y838715D01*
X558982Y837221D01*
X556869Y835108D01*
X555375Y832520D01*
X554601Y829633D01*
Y826644D01*
X555375Y823758D01*
X556869Y821170D01*
X558982Y819056D01*
X561570Y817562D01*
X564457Y816789D01*
X567445D01*
X570332Y817562D01*
X572920Y819056D01*
X575033Y821170D01*
X576528Y823758D01*
X577301Y826644D01*
Y829633D01*
X576528Y832520D01*
X575033Y835108D01*
X572920Y837221D01*
X570332Y838715D01*
X567445Y839489D01*
D02*
G37*
G36*
X542045D02*
X539057D01*
X536170Y838715D01*
X533582Y837221D01*
X531469Y835108D01*
X529975Y832520D01*
X529201Y829633D01*
Y826644D01*
X529975Y823758D01*
X531469Y821170D01*
X533582Y819056D01*
X536170Y817562D01*
X539057Y816789D01*
X542045D01*
X544932Y817562D01*
X547520Y819056D01*
X549633Y821170D01*
X551128Y823758D01*
X551901Y826644D01*
Y829633D01*
X551128Y832520D01*
X549633Y835108D01*
X547520Y837221D01*
X544932Y838715D01*
X542045Y839489D01*
D02*
G37*
G36*
X516645D02*
X513657D01*
X510770Y838715D01*
X508182Y837221D01*
X506069Y835108D01*
X504575Y832520D01*
X503801Y829633D01*
Y826644D01*
X504575Y823758D01*
X506069Y821170D01*
X508182Y819056D01*
X510770Y817562D01*
X513657Y816789D01*
X516645D01*
X519532Y817562D01*
X522120Y819056D01*
X524233Y821170D01*
X525728Y823758D01*
X526501Y826644D01*
Y829633D01*
X525728Y832520D01*
X524233Y835108D01*
X522120Y837221D01*
X519532Y838715D01*
X516645Y839489D01*
D02*
G37*
G36*
X491245D02*
X488257D01*
X485370Y838715D01*
X482782Y837221D01*
X480669Y835108D01*
X479175Y832520D01*
X478401Y829633D01*
Y826644D01*
X479175Y823758D01*
X480669Y821170D01*
X482782Y819056D01*
X485370Y817562D01*
X488257Y816789D01*
X491245D01*
X494132Y817562D01*
X496720Y819056D01*
X498833Y821170D01*
X500328Y823758D01*
X501101Y826644D01*
Y829633D01*
X500328Y832520D01*
X498833Y835108D01*
X496720Y837221D01*
X494132Y838715D01*
X491245Y839489D01*
D02*
G37*
G36*
X465845D02*
X462857D01*
X459970Y838715D01*
X457382Y837221D01*
X455269Y835108D01*
X453775Y832520D01*
X453001Y829633D01*
Y826644D01*
X453775Y823758D01*
X455269Y821170D01*
X457382Y819056D01*
X459970Y817562D01*
X462857Y816789D01*
X465845D01*
X468732Y817562D01*
X471320Y819056D01*
X473433Y821170D01*
X474928Y823758D01*
X475701Y826644D01*
Y829633D01*
X474928Y832520D01*
X473433Y835108D01*
X471320Y837221D01*
X468732Y838715D01*
X465845Y839489D01*
D02*
G37*
G36*
X440445D02*
X437457D01*
X434570Y838715D01*
X431982Y837221D01*
X429869Y835108D01*
X428375Y832520D01*
X427601Y829633D01*
Y826644D01*
X428375Y823758D01*
X429869Y821170D01*
X431982Y819056D01*
X434570Y817562D01*
X437457Y816789D01*
X440445D01*
X443332Y817562D01*
X445920Y819056D01*
X448033Y821170D01*
X449528Y823758D01*
X450301Y826644D01*
Y829633D01*
X449528Y832520D01*
X448033Y835108D01*
X445920Y837221D01*
X443332Y838715D01*
X440445Y839489D01*
D02*
G37*
G36*
X415045D02*
X412057D01*
X409170Y838715D01*
X406582Y837221D01*
X404469Y835108D01*
X402975Y832520D01*
X402201Y829633D01*
Y826644D01*
X402975Y823758D01*
X404469Y821170D01*
X406582Y819056D01*
X409170Y817562D01*
X412057Y816789D01*
X415045D01*
X417932Y817562D01*
X420520Y819056D01*
X422633Y821170D01*
X424128Y823758D01*
X424901Y826644D01*
Y829633D01*
X424128Y832520D01*
X422633Y835108D01*
X420520Y837221D01*
X417932Y838715D01*
X415045Y839489D01*
D02*
G37*
G36*
X389645D02*
X386657D01*
X383770Y838715D01*
X381182Y837221D01*
X379069Y835108D01*
X377575Y832520D01*
X376801Y829633D01*
Y826644D01*
X377575Y823758D01*
X379069Y821170D01*
X381182Y819056D01*
X383770Y817562D01*
X386657Y816789D01*
X389645D01*
X392532Y817562D01*
X395120Y819056D01*
X397233Y821170D01*
X398728Y823758D01*
X399501Y826644D01*
Y829633D01*
X398728Y832520D01*
X397233Y835108D01*
X395120Y837221D01*
X392532Y838715D01*
X389645Y839489D01*
D02*
G37*
G36*
X364245D02*
X361257D01*
X358370Y838715D01*
X355782Y837221D01*
X353669Y835108D01*
X352175Y832520D01*
X351401Y829633D01*
Y826644D01*
X352175Y823758D01*
X353669Y821170D01*
X355782Y819056D01*
X358370Y817562D01*
X361257Y816789D01*
X364245D01*
X367132Y817562D01*
X369720Y819056D01*
X371833Y821170D01*
X373328Y823758D01*
X374101Y826644D01*
Y829633D01*
X373328Y832520D01*
X371833Y835108D01*
X369720Y837221D01*
X367132Y838715D01*
X364245Y839489D01*
D02*
G37*
G36*
X338845D02*
X335857D01*
X332970Y838715D01*
X330382Y837221D01*
X328269Y835108D01*
X326775Y832520D01*
X326001Y829633D01*
Y826644D01*
X326775Y823758D01*
X328269Y821170D01*
X330382Y819056D01*
X332970Y817562D01*
X335857Y816789D01*
X338845D01*
X341732Y817562D01*
X344320Y819056D01*
X346433Y821170D01*
X347928Y823758D01*
X348701Y826644D01*
Y829633D01*
X347928Y832520D01*
X346433Y835108D01*
X344320Y837221D01*
X341732Y838715D01*
X338845Y839489D01*
D02*
G37*
G36*
X288045D02*
X285057D01*
X282170Y838715D01*
X279582Y837221D01*
X277469Y835108D01*
X275975Y832520D01*
X275201Y829633D01*
Y826644D01*
X275975Y823758D01*
X277469Y821170D01*
X279582Y819056D01*
X282170Y817562D01*
X285057Y816789D01*
X288045D01*
X290932Y817562D01*
X293520Y819056D01*
X295633Y821170D01*
X297128Y823758D01*
X297901Y826644D01*
Y829633D01*
X297128Y832520D01*
X295633Y835108D01*
X293520Y837221D01*
X290932Y838715D01*
X288045Y839489D01*
D02*
G37*
G36*
X262645D02*
X259657D01*
X256770Y838715D01*
X254182Y837221D01*
X252069Y835108D01*
X250575Y832520D01*
X249801Y829633D01*
Y826644D01*
X250575Y823758D01*
X252069Y821170D01*
X254182Y819056D01*
X256770Y817562D01*
X259657Y816789D01*
X262645D01*
X265532Y817562D01*
X268120Y819056D01*
X270233Y821170D01*
X271728Y823758D01*
X272501Y826644D01*
Y829633D01*
X271728Y832520D01*
X270233Y835108D01*
X268120Y837221D01*
X265532Y838715D01*
X262645Y839489D01*
D02*
G37*
G36*
X237245D02*
X234257D01*
X231370Y838715D01*
X228782Y837221D01*
X226669Y835108D01*
X225175Y832520D01*
X224401Y829633D01*
Y826644D01*
X225175Y823758D01*
X226669Y821170D01*
X228782Y819056D01*
X229615Y818576D01*
Y817000D01*
X230088Y814621D01*
X231435Y812605D01*
X240715Y803325D01*
X242731Y801978D01*
X245110Y801505D01*
X556240D01*
X556427Y801318D01*
X558252Y800264D01*
X560287Y799719D01*
X562393D01*
X564428Y800264D01*
X566253Y801318D01*
X567742Y802807D01*
X568796Y804632D01*
X569341Y806667D01*
Y808773D01*
X568796Y810808D01*
X567742Y812633D01*
X566253Y814122D01*
X564428Y815176D01*
X562393Y815721D01*
X560287D01*
X558252Y815176D01*
X556427Y814122D01*
X556240Y813935D01*
X247684D01*
X243507Y818112D01*
X243540Y819876D01*
X244833Y821170D01*
X246328Y823758D01*
X247101Y826644D01*
Y829633D01*
X246328Y832520D01*
X244833Y835108D01*
X242720Y837221D01*
X240132Y838715D01*
X237245Y839489D01*
D02*
G37*
G36*
X907618Y851948D02*
X903084D01*
X898605Y851239D01*
X894292Y849838D01*
X890251Y847779D01*
X886583Y845113D01*
X883376Y841907D01*
X880711Y838238D01*
X878652Y834197D01*
X877250Y829885D01*
X876541Y825406D01*
Y820871D01*
X877250Y816392D01*
X878652Y812079D01*
X880711Y808039D01*
X883376Y804370D01*
X886583Y801163D01*
X890251Y798498D01*
X894292Y796439D01*
X898605Y795038D01*
X903084Y794328D01*
X907618D01*
X912097Y795038D01*
X916410Y796439D01*
X920451Y798498D01*
X924119Y801163D01*
X927326Y804370D01*
X929992Y808039D01*
X932050Y812079D01*
X933452Y816392D01*
X934161Y820871D01*
Y825406D01*
X933452Y829885D01*
X932050Y834197D01*
X929992Y838238D01*
X927326Y841907D01*
X924119Y845113D01*
X920451Y847779D01*
X916410Y849838D01*
X912097Y851239D01*
X907618Y851948D01*
D02*
G37*
G36*
X157618D02*
X153084D01*
X148605Y851239D01*
X144292Y849838D01*
X140251Y847779D01*
X136582Y845113D01*
X133376Y841907D01*
X130710Y838238D01*
X128652Y834197D01*
X127250Y829885D01*
X126541Y825406D01*
Y820871D01*
X127250Y816392D01*
X128652Y812079D01*
X130710Y808039D01*
X133376Y804370D01*
X136582Y801163D01*
X140251Y798498D01*
X144292Y796439D01*
X148605Y795038D01*
X153084Y794328D01*
X157618D01*
X162097Y795038D01*
X166410Y796439D01*
X170451Y798498D01*
X174119Y801163D01*
X177326Y804370D01*
X179991Y808039D01*
X182050Y812079D01*
X183452Y816392D01*
X184161Y820871D01*
Y825406D01*
X183452Y829885D01*
X182050Y834197D01*
X179991Y838238D01*
X177326Y841907D01*
X174119Y845113D01*
X170451Y847779D01*
X166410Y849838D01*
X162097Y851239D01*
X157618Y851948D01*
D02*
G37*
G36*
X58203Y674751D02*
X56097D01*
X54062Y674206D01*
X52237Y673152D01*
X50748Y671663D01*
X49694Y669838D01*
X49149Y667803D01*
Y665697D01*
X49694Y663662D01*
X50748Y661837D01*
X50935Y661650D01*
Y632480D01*
X50748Y632293D01*
X49694Y630468D01*
X49149Y628433D01*
Y626327D01*
X49694Y624292D01*
X50748Y622467D01*
X52237Y620978D01*
X54062Y619924D01*
X56097Y619379D01*
X58203D01*
X60238Y619924D01*
X62063Y620978D01*
X63552Y622467D01*
X64606Y624292D01*
X65151Y626327D01*
Y628433D01*
X64606Y630468D01*
X63552Y632293D01*
X63365Y632480D01*
Y661650D01*
X63552Y661837D01*
X64606Y663662D01*
X65151Y665697D01*
Y667803D01*
X64606Y669838D01*
X63552Y671663D01*
X62063Y673152D01*
X60238Y674206D01*
X58203Y674751D01*
D02*
G37*
G36*
X907618Y541948D02*
X903084D01*
X898605Y541239D01*
X894292Y539838D01*
X890251Y537779D01*
X886583Y535113D01*
X883376Y531907D01*
X880711Y528238D01*
X878652Y524198D01*
X877250Y519885D01*
X876541Y515406D01*
Y510871D01*
X877250Y506392D01*
X878652Y502079D01*
X880711Y498039D01*
X883376Y494370D01*
X886583Y491163D01*
X890251Y488498D01*
X894292Y486439D01*
X898605Y485038D01*
X903084Y484328D01*
X907618D01*
X912097Y485038D01*
X916410Y486439D01*
X920451Y488498D01*
X924119Y491163D01*
X927326Y494370D01*
X929992Y498039D01*
X932050Y502079D01*
X933452Y506392D01*
X934161Y510871D01*
Y515406D01*
X933452Y519885D01*
X932050Y524198D01*
X929992Y528238D01*
X927326Y531907D01*
X924119Y535113D01*
X920451Y537779D01*
X916410Y539838D01*
X912097Y541239D01*
X907618Y541948D01*
D02*
G37*
G36*
X157618D02*
X153084D01*
X148605Y541239D01*
X144292Y539838D01*
X140251Y537779D01*
X136582Y535113D01*
X133376Y531907D01*
X130710Y528238D01*
X128652Y524198D01*
X127250Y519885D01*
X126541Y515406D01*
Y510871D01*
X127250Y506392D01*
X128652Y502079D01*
X130710Y498039D01*
X133376Y494370D01*
X136582Y491163D01*
X140251Y488498D01*
X144292Y486439D01*
X148605Y485038D01*
X153084Y484328D01*
X157618D01*
X162097Y485038D01*
X166410Y486439D01*
X170451Y488498D01*
X174119Y491163D01*
X177326Y494370D01*
X179991Y498039D01*
X182050Y502079D01*
X183452Y506392D01*
X184161Y510871D01*
Y515406D01*
X183452Y519885D01*
X182050Y524198D01*
X179991Y528238D01*
X177326Y531907D01*
X174119Y535113D01*
X170451Y537779D01*
X166410Y539838D01*
X162097Y541239D01*
X157618Y541948D01*
D02*
G37*
G36*
X238543Y648081D02*
X236437D01*
X234402Y647536D01*
X232577Y646482D01*
X231088Y644993D01*
X230034Y643168D01*
X229489Y641133D01*
Y639027D01*
X230034Y636992D01*
X231088Y635167D01*
X232577Y633678D01*
X234402Y632624D01*
X236437Y632079D01*
X236701D01*
X310015Y558765D01*
Y467637D01*
X308745Y467110D01*
X308443Y467412D01*
X306618Y468466D01*
X304583Y469011D01*
X302477D01*
X300442Y468466D01*
X298617Y467412D01*
X298430Y467225D01*
X110490D01*
X108111Y466752D01*
X106095Y465405D01*
X72871Y432181D01*
X72607D01*
X70572Y431636D01*
X68747Y430582D01*
X67258Y429093D01*
X66204Y427268D01*
X65659Y425233D01*
Y423127D01*
X66204Y421092D01*
X67258Y419267D01*
X68747Y417778D01*
X70572Y416724D01*
X72607Y416179D01*
X74713D01*
X76748Y416724D01*
X78573Y417778D01*
X80062Y419267D01*
X81116Y421092D01*
X81661Y423127D01*
Y423391D01*
X113064Y454795D01*
X298430D01*
X298617Y454608D01*
X300442Y453554D01*
X302477Y453009D01*
X304583D01*
X306618Y453554D01*
X307492Y454058D01*
X308582Y453222D01*
X308229Y451903D01*
Y449797D01*
X308774Y447762D01*
X309828Y445937D01*
X311317Y444448D01*
X313142Y443394D01*
X315177Y442849D01*
X317283D01*
X319318Y443394D01*
X321143Y444448D01*
X322632Y445937D01*
X323686Y447762D01*
X324231Y449797D01*
Y451903D01*
X323686Y453938D01*
X322632Y455763D01*
X322445Y455950D01*
Y561340D01*
X321972Y563719D01*
X320625Y565735D01*
X245491Y640869D01*
Y641133D01*
X244946Y643168D01*
X243892Y644993D01*
X242403Y646482D01*
X240578Y647536D01*
X238543Y648081D01*
D02*
G37*
G36*
X1021210Y483600D02*
X998090D01*
Y479982D01*
X944790D01*
X942735Y479711D01*
X940819Y478918D01*
X939174Y477656D01*
X939174Y477656D01*
X910348Y448830D01*
X895460D01*
Y443712D01*
X844710D01*
X842654Y443441D01*
X840739Y442648D01*
X839094Y441386D01*
X839094Y441386D01*
X805914Y408206D01*
X804652Y406561D01*
X803859Y404646D01*
X803588Y402590D01*
X803588Y402590D01*
Y394497D01*
X803410Y394026D01*
X803262Y393722D01*
X801133Y392299D01*
X798861Y390027D01*
X798146Y388956D01*
X797921Y388841D01*
X796336Y388173D01*
X794652Y387603D01*
X794534Y387572D01*
X726926D01*
X726807Y387603D01*
X725124Y388173D01*
X723539Y388841D01*
X723314Y388956D01*
X722599Y390027D01*
X720327Y392299D01*
X717656Y394084D01*
X714687Y395313D01*
X711536Y395940D01*
X708324D01*
X705173Y395313D01*
X702204Y394084D01*
X699533Y392299D01*
X697261Y390027D01*
X695476Y387356D01*
X694247Y384387D01*
X693620Y381236D01*
Y378023D01*
X694247Y374873D01*
X695476Y371904D01*
X697261Y369233D01*
X699533Y366961D01*
X702204Y365176D01*
X705173Y363947D01*
X708324Y363320D01*
X711536D01*
X714687Y363947D01*
X715027Y364087D01*
X715825Y363944D01*
X717610Y363474D01*
X719323Y362869D01*
X720597Y362296D01*
X731889Y351005D01*
X733166Y349063D01*
X734683Y346462D01*
X736006Y343862D01*
X736920Y341764D01*
Y339285D01*
X737835Y334685D01*
X739630Y330352D01*
X742236Y326452D01*
X745552Y323136D01*
X749452Y320530D01*
X753785Y318735D01*
X758385Y317820D01*
X760864D01*
X762962Y316906D01*
X765530Y315599D01*
X770178Y312716D01*
X794197Y288697D01*
X794769Y287423D01*
X794863Y287159D01*
X794826Y287028D01*
X793935Y285972D01*
X726926D01*
X726807Y286003D01*
X725124Y286573D01*
X723539Y287241D01*
X723314Y287356D01*
X722599Y288427D01*
X720327Y290699D01*
X717656Y292484D01*
X714687Y293713D01*
X711536Y294340D01*
X708324D01*
X705173Y293713D01*
X702204Y292484D01*
X699533Y290699D01*
X697261Y288427D01*
X695476Y285756D01*
X694247Y282787D01*
X693620Y279636D01*
Y276423D01*
X694247Y273272D01*
X695476Y270304D01*
X697261Y267633D01*
X699533Y265361D01*
X702204Y263576D01*
X705173Y262347D01*
X708324Y261720D01*
X711536D01*
X714687Y262347D01*
X717656Y263576D01*
X720327Y265361D01*
X722599Y267633D01*
X723314Y268703D01*
X723539Y268819D01*
X725124Y269487D01*
X726807Y270057D01*
X726926Y270088D01*
X794534D01*
X794652Y270057D01*
X796336Y269487D01*
X797921Y268819D01*
X798146Y268703D01*
X798861Y267633D01*
X801133Y265361D01*
X803804Y263576D01*
X806773Y262347D01*
X809924Y261720D01*
X813136D01*
X816287Y262347D01*
X819256Y263576D01*
X821927Y265361D01*
X824199Y267633D01*
X825984Y270304D01*
X826718Y272076D01*
X828092D01*
X828826Y270304D01*
X830611Y267633D01*
X832883Y265361D01*
X835554Y263576D01*
X838523Y262347D01*
X841674Y261720D01*
X844886D01*
X848037Y262347D01*
X851006Y263576D01*
X853677Y265361D01*
X855949Y267633D01*
X856664Y268703D01*
X856889Y268819D01*
X858474Y269487D01*
X860157Y270057D01*
X860276Y270088D01*
X927884D01*
X928002Y270057D01*
X929686Y269487D01*
X931271Y268819D01*
X931496Y268703D01*
X932211Y267633D01*
X934483Y265361D01*
X937154Y263576D01*
X940123Y262347D01*
X943274Y261720D01*
X946486D01*
X949637Y262347D01*
X952606Y263576D01*
X955277Y265361D01*
X957549Y267633D01*
X959334Y270304D01*
X960563Y273272D01*
X961190Y276423D01*
Y279636D01*
X960563Y282787D01*
X959334Y285756D01*
X957549Y288427D01*
X955277Y290699D01*
X952606Y292484D01*
X949637Y293713D01*
X946486Y294340D01*
X944548D01*
X944074Y294633D01*
X921012Y317695D01*
X919812Y320321D01*
X918797Y323191D01*
X917973Y326302D01*
X917344Y329659D01*
X916915Y333259D01*
X916849Y334380D01*
X916975Y334685D01*
X917890Y339285D01*
Y343975D01*
X916975Y348575D01*
X915180Y352908D01*
X912574Y356808D01*
X909258Y360124D01*
X905358Y362730D01*
X901025Y364525D01*
X896425Y365440D01*
X891735D01*
X887135Y364525D01*
X886830Y364399D01*
X885709Y364465D01*
X882109Y364894D01*
X878753Y365523D01*
X875641Y366347D01*
X872771Y367362D01*
X870145Y368562D01*
X868192Y370515D01*
X868678Y371688D01*
X927884D01*
X928002Y371657D01*
X929686Y371087D01*
X931271Y370419D01*
X931496Y370303D01*
X932211Y369233D01*
X934483Y366961D01*
X937154Y365176D01*
X940123Y363947D01*
X943274Y363320D01*
X946486D01*
X949637Y363947D01*
X952606Y365176D01*
X955277Y366961D01*
X957549Y369233D01*
X959189Y371688D01*
X963830D01*
X963830Y371688D01*
X965885Y371959D01*
X967801Y372752D01*
X969446Y374014D01*
X1015266Y419834D01*
X1015266Y419834D01*
X1016528Y421479D01*
X1017321Y423395D01*
X1017592Y425450D01*
Y438634D01*
X1018900Y439942D01*
X1020422Y442578D01*
X1021210Y445518D01*
Y448562D01*
X1020422Y451502D01*
X1018900Y454138D01*
X1016748Y456290D01*
X1014112Y457812D01*
X1011172Y458600D01*
X1008128D01*
X1005188Y457812D01*
X1002552Y456290D01*
X1000400Y454138D01*
X998878Y451502D01*
X998090Y448562D01*
Y445518D01*
X998878Y442578D01*
X1000400Y439942D01*
X1001708Y438634D01*
Y428740D01*
X960540Y387572D01*
X959189D01*
X957549Y390027D01*
X955277Y392299D01*
X952606Y394084D01*
X949637Y395313D01*
X946486Y395940D01*
X943274D01*
X940123Y395313D01*
X937154Y394084D01*
X934483Y392299D01*
X932211Y390027D01*
X931496Y388956D01*
X931271Y388841D01*
X929686Y388173D01*
X928002Y387603D01*
X927884Y387572D01*
X860276D01*
X860157Y387603D01*
X858474Y388173D01*
X856889Y388841D01*
X856664Y388956D01*
X855949Y390027D01*
X853677Y392299D01*
X851006Y394084D01*
X848037Y395313D01*
X844886Y395940D01*
X841674D01*
X838523Y395313D01*
X835554Y394084D01*
X832883Y392299D01*
X830611Y390027D01*
X828826Y387356D01*
X828092Y385584D01*
X826718D01*
X825984Y387356D01*
X824199Y390027D01*
X821927Y392299D01*
X819798Y393722D01*
X819650Y394026D01*
X819472Y394497D01*
Y399300D01*
X848000Y427828D01*
X895460D01*
Y422710D01*
X921580D01*
Y437598D01*
X948080Y464098D01*
X998090D01*
Y460480D01*
X1021210D01*
Y483600D01*
D02*
G37*
G36*
X810239Y468830D02*
X806801D01*
X803479Y467940D01*
X800501Y466221D01*
X798070Y463789D01*
X796350Y460811D01*
X795460Y457489D01*
Y454051D01*
X796350Y450729D01*
X798070Y447751D01*
X800501Y445319D01*
X803479Y443600D01*
X806801Y442710D01*
X810239D01*
X813561Y443600D01*
X816539Y445319D01*
X818971Y447751D01*
X820690Y450729D01*
X821580Y454051D01*
Y457489D01*
X820690Y460811D01*
X818971Y463789D01*
X816539Y466221D01*
X813561Y467940D01*
X810239Y468830D01*
D02*
G37*
G36*
X561043Y409280D02*
X558077D01*
X555167Y408701D01*
X552426Y407566D01*
X549960Y405918D01*
X547862Y403820D01*
X546214Y401354D01*
X545079Y398613D01*
X544500Y395704D01*
Y392737D01*
X545079Y389827D01*
X546214Y387087D01*
X547862Y384620D01*
X549960Y382522D01*
X552426Y380874D01*
X555167Y379739D01*
X558077Y379160D01*
X561043D01*
X563953Y379739D01*
X566694Y380874D01*
X569160Y382522D01*
X571258Y384620D01*
X572906Y387087D01*
X574041Y389827D01*
X574620Y392737D01*
Y395704D01*
X574041Y398613D01*
X572906Y401354D01*
X571258Y403820D01*
X569160Y405918D01*
X566694Y407566D01*
X563953Y408701D01*
X561043Y409280D01*
D02*
G37*
G36*
X503643D02*
X500677D01*
X497767Y408701D01*
X495026Y407566D01*
X492560Y405918D01*
X490462Y403820D01*
X488814Y401354D01*
X487679Y398613D01*
X487100Y395704D01*
Y392737D01*
X487679Y389827D01*
X488814Y387087D01*
X490462Y384620D01*
X492560Y382522D01*
X495026Y380874D01*
X497767Y379739D01*
X500677Y379160D01*
X503643D01*
X506553Y379739D01*
X509294Y380874D01*
X511760Y382522D01*
X513858Y384620D01*
X515506Y387087D01*
X516641Y389827D01*
X517220Y392737D01*
Y395704D01*
X516641Y398613D01*
X515506Y401354D01*
X513858Y403820D01*
X511760Y405918D01*
X509294Y407566D01*
X506553Y408701D01*
X503643Y409280D01*
D02*
G37*
G36*
X610844Y380580D02*
X607877D01*
X604967Y380001D01*
X602227Y378866D01*
X599760Y377218D01*
X597662Y375120D01*
X596014Y372654D01*
X594879Y369913D01*
X594300Y367004D01*
Y364037D01*
X594879Y361127D01*
X596014Y358387D01*
X597662Y355920D01*
X599760Y353822D01*
X602227Y352174D01*
X604967Y351039D01*
X607877Y350460D01*
X610844D01*
X613753Y351039D01*
X616494Y352174D01*
X618960Y353822D01*
X621058Y355920D01*
X622706Y358387D01*
X623842Y361127D01*
X624420Y364037D01*
Y367004D01*
X623842Y369913D01*
X622706Y372654D01*
X621058Y375120D01*
X618960Y377218D01*
X616494Y378866D01*
X613753Y380001D01*
X610844Y380580D01*
D02*
G37*
G36*
X227330Y443095D02*
X201930D01*
X199552Y442622D01*
X197535Y441275D01*
X172864Y416604D01*
X171517Y414588D01*
X171043Y412209D01*
Y401942D01*
X170128Y401026D01*
X169074Y399201D01*
X168529Y397166D01*
Y395060D01*
X169074Y393025D01*
X170128Y391200D01*
X171617Y389711D01*
X173442Y388657D01*
X175477Y388112D01*
X177583D01*
X179618Y388657D01*
X181443Y389711D01*
X182932Y391200D01*
X183751Y392617D01*
X185021Y392277D01*
Y361214D01*
X185494Y358835D01*
X186185Y357801D01*
X185198Y356992D01*
X138750Y403440D01*
X138482Y404708D01*
X139536Y406533D01*
X140081Y408568D01*
Y410674D01*
X139536Y412709D01*
X138482Y414534D01*
X136993Y416023D01*
X135168Y417077D01*
X133133Y417622D01*
X131517D01*
X131191Y418047D01*
Y420153D01*
X130646Y422188D01*
X129592Y424013D01*
X128103Y425502D01*
X126278Y426556D01*
X124243Y427101D01*
X122137D01*
X120102Y426556D01*
X118277Y425502D01*
X116788Y424013D01*
X115734Y422188D01*
X115189Y420153D01*
Y419889D01*
X106835Y411535D01*
X105487Y409518D01*
X105014Y407140D01*
Y400824D01*
X97424Y393233D01*
X36850D01*
X36663Y393420D01*
X34838Y394474D01*
X32803Y395019D01*
X30697D01*
X28662Y394474D01*
X26837Y393420D01*
X25348Y391931D01*
X24294Y390106D01*
X23749Y388071D01*
Y385965D01*
X24294Y383930D01*
X25348Y382105D01*
X26837Y380616D01*
X28662Y379562D01*
X30697Y379017D01*
X32803D01*
X34838Y379562D01*
X36663Y380616D01*
X36850Y380803D01*
X99998D01*
X102377Y381276D01*
X104393Y382623D01*
X115625Y393855D01*
X116972Y395871D01*
X117445Y398250D01*
Y404565D01*
X122809Y409929D01*
X124079Y409403D01*
Y408568D01*
X124624Y406533D01*
X125678Y404708D01*
X125865Y404521D01*
Y401320D01*
X126338Y398941D01*
X127685Y396925D01*
X211505Y313105D01*
X213521Y311758D01*
X215900Y311285D01*
X224933D01*
X225100Y310015D01*
X223985Y309716D01*
X222160Y308662D01*
X220671Y307173D01*
X219617Y305348D01*
X219072Y303313D01*
Y301207D01*
X219558Y299394D01*
X219410Y299106D01*
X219189Y298842D01*
X218603Y298389D01*
X216953Y298831D01*
X214847D01*
X212812Y298286D01*
X210987Y297232D01*
X209498Y295743D01*
X208444Y293918D01*
X207899Y291883D01*
Y289777D01*
X208444Y287742D01*
X209498Y285917D01*
X210987Y284428D01*
X212812Y283374D01*
X214847Y282829D01*
X216953D01*
X218988Y283374D01*
X220813Y284428D01*
X221000Y284615D01*
X226026D01*
X248539Y262101D01*
Y261837D01*
X249084Y259802D01*
X250138Y257977D01*
X251627Y256488D01*
X253452Y255434D01*
X255487Y254889D01*
X257593D01*
X259628Y255434D01*
X261453Y256488D01*
X262942Y257977D01*
X263996Y259802D01*
X264541Y261837D01*
Y263943D01*
X263996Y265978D01*
X262942Y267803D01*
X261453Y269292D01*
X259628Y270346D01*
X257593Y270891D01*
X257329D01*
X233445Y294775D01*
X233971Y296045D01*
X252710D01*
X252897Y295858D01*
X254722Y294804D01*
X256757Y294259D01*
X258863D01*
X260898Y294804D01*
X262723Y295858D01*
X264212Y297347D01*
X265266Y299172D01*
X265811Y301207D01*
Y303313D01*
X265266Y305348D01*
X264212Y307173D01*
X262723Y308662D01*
X260898Y309716D01*
X259783Y310015D01*
X259950Y311285D01*
X262855D01*
X293505Y280636D01*
Y229870D01*
X293978Y227491D01*
X295325Y225475D01*
X337235Y183565D01*
X339252Y182218D01*
X341630Y181745D01*
X454505D01*
X454991Y180571D01*
X415975Y141555D01*
X414628Y139539D01*
X414155Y137160D01*
Y76220D01*
X413968Y76033D01*
X412914Y74208D01*
X412369Y72173D01*
Y70067D01*
X412914Y68032D01*
X413968Y66207D01*
X415457Y64718D01*
X417282Y63664D01*
X419317Y63119D01*
X421423D01*
X423458Y63664D01*
X425283Y64718D01*
X426772Y66207D01*
X427826Y68032D01*
X428371Y70067D01*
Y72173D01*
X427826Y74208D01*
X426772Y76033D01*
X426585Y76220D01*
Y134586D01*
X434571Y142571D01*
X435745Y142085D01*
Y105430D01*
X435558Y105243D01*
X434504Y103418D01*
X433959Y101383D01*
Y99277D01*
X434504Y97242D01*
X435558Y95417D01*
X437047Y93928D01*
X438872Y92874D01*
X440907Y92329D01*
X441171D01*
X448995Y84505D01*
X451011Y83158D01*
X453390Y82685D01*
X521950D01*
X522137Y82498D01*
X523962Y81444D01*
X525997Y80899D01*
X528103D01*
X530138Y81444D01*
X531963Y82498D01*
X533452Y83987D01*
X534506Y85812D01*
X535051Y87847D01*
Y89953D01*
X534506Y91988D01*
X533452Y93813D01*
X531963Y95302D01*
X530138Y96356D01*
X528103Y96901D01*
X525997D01*
X523962Y96356D01*
X522137Y95302D01*
X521950Y95115D01*
X455965D01*
X449961Y101119D01*
Y101383D01*
X449416Y103418D01*
X448362Y105243D01*
X448175Y105430D01*
Y144746D01*
X473604Y170174D01*
X489694D01*
X490886Y169795D01*
X492560Y168122D01*
X495026Y166474D01*
X497767Y165339D01*
X500677Y164760D01*
X503643D01*
X506553Y165339D01*
X509294Y166474D01*
X511760Y168122D01*
X513858Y170220D01*
X515506Y172686D01*
X516641Y175427D01*
X517220Y178337D01*
Y181303D01*
X516641Y184213D01*
X515506Y186953D01*
X513858Y189420D01*
X511760Y191518D01*
X509294Y193166D01*
X506553Y194301D01*
X503643Y194880D01*
X500677D01*
X497767Y194301D01*
X495026Y193166D01*
X492560Y191518D01*
X490462Y189420D01*
X488814Y186953D01*
X488362Y185863D01*
X487420Y185110D01*
X485905Y184058D01*
X484421Y183182D01*
X483230Y182605D01*
X476264D01*
X475778Y183778D01*
X521648Y229648D01*
X522918Y229122D01*
Y172720D01*
X522918Y172720D01*
X523189Y170665D01*
X523982Y168749D01*
X525244Y167104D01*
X544294Y148054D01*
X544294Y148054D01*
X545939Y146792D01*
X547854Y145999D01*
X549910Y145728D01*
X640080D01*
X640080Y145728D01*
X642135Y145999D01*
X644051Y146792D01*
X645696Y148054D01*
X714645Y217003D01*
X714843Y217118D01*
X716332Y218607D01*
X717386Y220432D01*
X717931Y222467D01*
Y224573D01*
X717386Y226608D01*
X716332Y228433D01*
X714843Y229922D01*
X713018Y230976D01*
X710983Y231521D01*
X708877D01*
X706842Y230976D01*
X705017Y229922D01*
X703528Y228433D01*
X703413Y228235D01*
X636790Y161612D01*
X553200D01*
X538802Y176010D01*
Y234946D01*
X538861Y235167D01*
Y237273D01*
X538316Y239308D01*
X537262Y241133D01*
X535773Y242622D01*
X533948Y243676D01*
X531913Y244221D01*
X529807D01*
X527772Y243676D01*
X526979Y243218D01*
X526199Y244235D01*
X547679Y265714D01*
X549057Y265296D01*
X549399Y263577D01*
X550534Y260836D01*
X552182Y258370D01*
X554280Y256272D01*
X556746Y254624D01*
X559487Y253489D01*
X562397Y252910D01*
X565363D01*
X568273Y253489D01*
X571014Y254624D01*
X573480Y256272D01*
X575578Y258370D01*
X577226Y260836D01*
X578361Y263577D01*
X578940Y266487D01*
Y269453D01*
X578361Y272363D01*
X577226Y275104D01*
X575578Y277570D01*
X573480Y279668D01*
X571014Y281316D01*
X568273Y282451D01*
X565363Y283030D01*
X562397D01*
X562187Y282988D01*
X561205Y283794D01*
Y312400D01*
X561392Y312587D01*
X562446Y314412D01*
X562991Y316447D01*
Y318553D01*
X562446Y320588D01*
X561392Y322413D01*
X559903Y323902D01*
X558078Y324956D01*
X556043Y325501D01*
X553937D01*
X551902Y324956D01*
X550077Y323902D01*
X548588Y322413D01*
X547534Y320588D01*
X546989Y318553D01*
Y316447D01*
X547534Y314412D01*
X548588Y312587D01*
X548775Y312400D01*
Y284389D01*
X530629Y266244D01*
X529455Y266730D01*
Y294640D01*
X528982Y297019D01*
X527635Y299035D01*
X511675Y314995D01*
Y328895D01*
X517906Y335126D01*
X518892Y334316D01*
X517514Y332254D01*
X516379Y329513D01*
X515800Y326603D01*
Y323637D01*
X516379Y320727D01*
X517514Y317986D01*
X519162Y315520D01*
X521260Y313422D01*
X523726Y311774D01*
X526467Y310639D01*
X529377Y310060D01*
X532343D01*
X535253Y310639D01*
X537994Y311774D01*
X540460Y313422D01*
X542558Y315520D01*
X544206Y317986D01*
X545341Y320727D01*
X545920Y323637D01*
Y326603D01*
X545341Y329513D01*
X544206Y332254D01*
X542558Y334720D01*
X540460Y336818D01*
X537994Y338466D01*
X535253Y339601D01*
X532343Y340180D01*
X529377D01*
X526467Y339601D01*
X523726Y338466D01*
X521664Y337088D01*
X520854Y338074D01*
X525815Y343035D01*
X551146D01*
X603145Y291035D01*
Y225278D01*
X603018Y224896D01*
X602369Y223321D01*
X601598Y221760D01*
X601304Y221249D01*
X599760Y220218D01*
X597662Y218120D01*
X596014Y215653D01*
X594879Y212913D01*
X594300Y210003D01*
Y207036D01*
X594879Y204127D01*
X596014Y201386D01*
X597662Y198920D01*
X599760Y196822D01*
X602227Y195174D01*
X604967Y194039D01*
X607877Y193460D01*
X610844D01*
X613753Y194039D01*
X616494Y195174D01*
X618960Y196822D01*
X621058Y198920D01*
X622706Y201386D01*
X623842Y204127D01*
X624420Y207036D01*
Y210003D01*
X623842Y212913D01*
X622706Y215653D01*
X621058Y218120D01*
X618960Y220218D01*
X617417Y221249D01*
X617122Y221760D01*
X616352Y223321D01*
X615703Y224896D01*
X615576Y225278D01*
Y293610D01*
X615103Y295988D01*
X613755Y298005D01*
X558115Y353645D01*
X556099Y354992D01*
X553720Y355465D01*
X523240D01*
X520862Y354992D01*
X518845Y353645D01*
X501065Y335865D01*
X499718Y333849D01*
X499245Y331470D01*
Y312420D01*
X499718Y310042D01*
X501065Y308025D01*
X517025Y292066D01*
Y262338D01*
X506907Y252220D01*
X505560Y250204D01*
X505087Y247826D01*
Y244636D01*
X454626Y194175D01*
X344204D01*
X305935Y232444D01*
Y283210D01*
X305462Y285589D01*
X304115Y287605D01*
X270148Y321572D01*
X270606Y322842D01*
X284460D01*
X284647Y322655D01*
X286472Y321601D01*
X288507Y321056D01*
X288771D01*
X355902Y253925D01*
X357918Y252578D01*
X360297Y252105D01*
X406901D01*
X407284Y251977D01*
X408858Y251329D01*
X410420Y250558D01*
X410931Y250263D01*
X411962Y248720D01*
X414060Y246622D01*
X416526Y244974D01*
X419267Y243839D01*
X422177Y243260D01*
X425143D01*
X428053Y243839D01*
X430793Y244974D01*
X433260Y246622D01*
X435358Y248720D01*
X437006Y251186D01*
X438141Y253927D01*
X438720Y256837D01*
Y259803D01*
X438141Y262713D01*
X437006Y265454D01*
X435358Y267920D01*
X433260Y270018D01*
X430793Y271666D01*
X428053Y272801D01*
X425143Y273380D01*
X422177D01*
X419267Y272801D01*
X416526Y271666D01*
X414060Y270018D01*
X411962Y267920D01*
X410931Y266377D01*
X410420Y266082D01*
X408858Y265311D01*
X407284Y264663D01*
X406901Y264536D01*
X362872D01*
X297561Y329846D01*
Y330110D01*
X297016Y332145D01*
X295962Y333970D01*
X294473Y335459D01*
X292648Y336513D01*
X290613Y337058D01*
X288507D01*
X286472Y336513D01*
X284647Y335459D01*
X284460Y335272D01*
X225968D01*
X197451Y363788D01*
Y396956D01*
X197638Y397143D01*
X198692Y398968D01*
X199237Y401003D01*
Y403109D01*
X198692Y405144D01*
X197638Y406969D01*
X196149Y408458D01*
X194324Y409512D01*
X192289Y410057D01*
X190183D01*
X188148Y409512D01*
X186323Y408458D01*
X184834Y406969D01*
X184744Y406814D01*
X183474Y407155D01*
Y409635D01*
X204505Y430665D01*
X224755D01*
X236355Y419066D01*
Y388620D01*
X236828Y386241D01*
X238175Y384225D01*
X263575Y358825D01*
X265592Y357478D01*
X267970Y357005D01*
X379782D01*
X382160Y357478D01*
X384177Y358825D01*
X405216Y379865D01*
X444434D01*
X444820Y378595D01*
X442760Y377218D01*
X440662Y375120D01*
X439014Y372654D01*
X437878Y369913D01*
X437300Y367004D01*
Y364037D01*
X437878Y361127D01*
X439014Y358387D01*
X440662Y355920D01*
X442760Y353822D01*
X445226Y352174D01*
X447967Y351039D01*
X450877Y350460D01*
X453843D01*
X456753Y351039D01*
X459493Y352174D01*
X461960Y353822D01*
X464058Y355920D01*
X465706Y358387D01*
X466841Y361127D01*
X467420Y364037D01*
Y367004D01*
X466841Y369913D01*
X465706Y372654D01*
X464058Y375120D01*
X461960Y377218D01*
X459900Y378595D01*
X460285Y379865D01*
X468610D01*
X468797Y379678D01*
X470622Y378624D01*
X472657Y378079D01*
X472921D01*
X490905Y360095D01*
X492921Y358748D01*
X495300Y358275D01*
X556226D01*
X603206Y311294D01*
X605223Y309947D01*
X605991Y309794D01*
X607227Y308558D01*
X609052Y307504D01*
X611087Y306959D01*
X613193D01*
X615228Y307504D01*
X617053Y308558D01*
X618542Y310047D01*
X619596Y311872D01*
X620141Y313907D01*
Y316013D01*
X619596Y318048D01*
X618542Y319873D01*
X617053Y321362D01*
X615228Y322416D01*
X613193Y322961D01*
X611087D01*
X609535Y322545D01*
X563195Y368885D01*
X561179Y370232D01*
X558800Y370705D01*
X497874D01*
X481711Y386869D01*
Y387133D01*
X481166Y389168D01*
X480112Y390993D01*
X478623Y392482D01*
X476798Y393536D01*
X474763Y394081D01*
X472657D01*
X470622Y393536D01*
X468797Y392482D01*
X468610Y392295D01*
X402642D01*
X400263Y391822D01*
X398247Y390475D01*
X389325Y381553D01*
X389171Y381231D01*
X389042Y380863D01*
X388974Y380530D01*
X388638Y380866D01*
X377207Y369435D01*
X270544D01*
X248785Y391194D01*
Y421640D01*
X248312Y424019D01*
X246965Y426035D01*
X231725Y441275D01*
X229709Y442622D01*
X229314Y442701D01*
X227330Y443095D01*
D02*
G37*
G36*
X639543Y330780D02*
X636577D01*
X633667Y330201D01*
X630927Y329066D01*
X628460Y327418D01*
X626362Y325320D01*
X624714Y322854D01*
X623579Y320113D01*
X623000Y317203D01*
Y314237D01*
X623579Y311327D01*
X624714Y308586D01*
X626362Y306120D01*
X628460Y304022D01*
X630927Y302374D01*
X633667Y301239D01*
X636577Y300660D01*
X639543D01*
X642453Y301239D01*
X645194Y302374D01*
X647660Y304022D01*
X649758Y306120D01*
X651406Y308586D01*
X652541Y311327D01*
X653120Y314237D01*
Y317203D01*
X652541Y320113D01*
X651406Y322854D01*
X649758Y325320D01*
X647660Y327418D01*
X645194Y329066D01*
X642453Y330201D01*
X639543Y330780D01*
D02*
G37*
G36*
X425143D02*
X422177D01*
X419267Y330201D01*
X416526Y329066D01*
X414060Y327418D01*
X411962Y325320D01*
X410314Y322854D01*
X409179Y320113D01*
X408600Y317203D01*
Y314237D01*
X409179Y311327D01*
X410314Y308586D01*
X411962Y306120D01*
X414060Y304022D01*
X416526Y302374D01*
X419267Y301239D01*
X422177Y300660D01*
X425143D01*
X428053Y301239D01*
X430793Y302374D01*
X433260Y304022D01*
X435358Y306120D01*
X437006Y308586D01*
X438141Y311327D01*
X438720Y314237D01*
Y317203D01*
X438141Y320113D01*
X437006Y322854D01*
X435358Y325320D01*
X433260Y327418D01*
X430793Y329066D01*
X428053Y330201D01*
X425143Y330780D01*
D02*
G37*
G36*
X157263Y322961D02*
X155157D01*
X153122Y322416D01*
X151297Y321362D01*
X149808Y319873D01*
X148754Y318048D01*
X148209Y316013D01*
Y313907D01*
X148754Y311872D01*
X149808Y310047D01*
X149995Y309860D01*
Y267731D01*
X150468Y265353D01*
X151815Y263336D01*
X152019Y263132D01*
Y261837D01*
X152564Y259802D01*
X153365Y258415D01*
X152435Y257485D01*
X150995Y258317D01*
X147737Y259190D01*
X144363D01*
X141105Y258317D01*
X138184Y256631D01*
X135799Y254245D01*
X134113Y251325D01*
X133985Y250847D01*
X132715D01*
X132587Y251325D01*
X130901Y254245D01*
X128516Y256631D01*
X125595Y258317D01*
X122337Y259190D01*
X118963D01*
X115705Y258317D01*
X112785Y256631D01*
X110399Y254245D01*
X108713Y251325D01*
X108585Y250847D01*
X107315D01*
X107187Y251325D01*
X105501Y254245D01*
X103116Y256631D01*
X100195Y258317D01*
X96937Y259190D01*
X93563D01*
X90306Y258317D01*
X87385Y256631D01*
X84999Y254245D01*
X83313Y251325D01*
X83185Y250847D01*
X81915D01*
X81787Y251325D01*
X80101Y254245D01*
X77716Y256631D01*
X74795Y258317D01*
X71536Y259190D01*
X68163D01*
X64906Y258317D01*
X61985Y256631D01*
X59599Y254245D01*
X57913Y251325D01*
X57040Y248067D01*
Y244694D01*
X57913Y241436D01*
X59599Y238514D01*
X61985Y236129D01*
X64906Y234443D01*
X68163Y233570D01*
X71536D01*
X74795Y234443D01*
X77716Y236129D01*
X80101Y238514D01*
X81787Y241436D01*
X81915Y241913D01*
X83185D01*
X83313Y241436D01*
X84999Y238514D01*
X87385Y236129D01*
X90306Y234443D01*
X93563Y233570D01*
X96937D01*
X100195Y234443D01*
X103116Y236129D01*
X105501Y238514D01*
X107187Y241436D01*
X107315Y241913D01*
X108585D01*
X108713Y241436D01*
X110399Y238514D01*
X112785Y236129D01*
X115705Y234443D01*
X116183Y234315D01*
Y233045D01*
X115705Y232917D01*
X112785Y231231D01*
X110399Y228846D01*
X108713Y225924D01*
X107840Y222666D01*
Y219293D01*
X108713Y216035D01*
X110399Y213114D01*
X112785Y210729D01*
X115705Y209043D01*
X118963Y208170D01*
X122337D01*
X125595Y209043D01*
X128516Y210729D01*
X130901Y213114D01*
X132587Y216035D01*
X132715Y216513D01*
X133985D01*
X134113Y216035D01*
X135799Y213114D01*
X138184Y210729D01*
X141105Y209043D01*
X144363Y208170D01*
X147737D01*
X150995Y209043D01*
X153916Y210729D01*
X156301Y213114D01*
X157987Y216035D01*
X158115Y216513D01*
X159385D01*
X159513Y216035D01*
X161199Y213114D01*
X163584Y210729D01*
X166506Y209043D01*
X169764Y208170D01*
X173137D01*
X176395Y209043D01*
X179315Y210729D01*
X181701Y213114D01*
X181788Y213266D01*
X183015Y212937D01*
Y168671D01*
X183488Y166293D01*
X184835Y164276D01*
X186309Y162802D01*
Y161507D01*
X186854Y159472D01*
X187908Y157647D01*
X189397Y156158D01*
X191222Y155104D01*
X193257Y154559D01*
X195363D01*
X197398Y155104D01*
X199223Y156158D01*
X200712Y157647D01*
X201766Y159472D01*
X202065Y160587D01*
X203335Y160420D01*
Y130810D01*
X203808Y128431D01*
X205155Y126415D01*
X300405Y31165D01*
X302421Y29818D01*
X304800Y29345D01*
X506730D01*
X509109Y29818D01*
X511125Y31165D01*
X549225Y69265D01*
X550572Y71281D01*
X551045Y73660D01*
Y114280D01*
X551232Y114467D01*
X552286Y116292D01*
X552831Y118327D01*
Y120433D01*
X552286Y122468D01*
X551232Y124293D01*
X549743Y125782D01*
X547918Y126836D01*
X545883Y127381D01*
X543777D01*
X541742Y126836D01*
X539917Y125782D01*
X538428Y124293D01*
X537374Y122468D01*
X536829Y120433D01*
Y118327D01*
X537374Y116292D01*
X538428Y114467D01*
X538615Y114280D01*
Y76234D01*
X504156Y41775D01*
X307374D01*
X215765Y133385D01*
Y175240D01*
X215952Y175427D01*
X217006Y177252D01*
X217551Y179287D01*
Y179551D01*
X235535Y197535D01*
X236882Y199552D01*
X237355Y201930D01*
Y257790D01*
X237542Y257977D01*
X238596Y259802D01*
X239141Y261837D01*
Y263943D01*
X238596Y265978D01*
X237542Y267803D01*
X236053Y269292D01*
X234228Y270346D01*
X232193Y270891D01*
X230087D01*
X228052Y270346D01*
X226227Y269292D01*
X224738Y267803D01*
X223684Y265978D01*
X223139Y263943D01*
Y261837D01*
X223684Y259802D01*
X224738Y257977D01*
X224925Y257790D01*
Y204505D01*
X208761Y188341D01*
X208497D01*
X206462Y187796D01*
X204637Y186742D01*
X203148Y185253D01*
X202094Y183428D01*
X201549Y181393D01*
Y179287D01*
X202094Y177252D01*
X203148Y175427D01*
X203335Y175240D01*
Y164700D01*
X202065Y164533D01*
X201766Y165648D01*
X200712Y167473D01*
X199223Y168962D01*
X197398Y170016D01*
X196411Y170280D01*
X195445Y171246D01*
Y257790D01*
X195632Y257977D01*
X196686Y259802D01*
X197231Y261837D01*
Y263943D01*
X196686Y265978D01*
X195632Y267803D01*
X194143Y269292D01*
X192318Y270346D01*
X190283Y270891D01*
X188177D01*
X186142Y270346D01*
X184317Y269292D01*
X182828Y267803D01*
X181774Y265978D01*
X181229Y263943D01*
Y261837D01*
X181598Y260460D01*
X180765Y259190D01*
X168485D01*
X167652Y260460D01*
X168021Y261837D01*
Y263943D01*
X167476Y265978D01*
X166422Y267803D01*
X164933Y269292D01*
X163108Y270346D01*
X162425Y270529D01*
Y309860D01*
X162612Y310047D01*
X163666Y311872D01*
X164211Y313907D01*
Y316013D01*
X163666Y318048D01*
X162612Y319873D01*
X161123Y321362D01*
X159298Y322416D01*
X157263Y322961D01*
D02*
G37*
G36*
X499323Y283030D02*
X496357D01*
X493447Y282451D01*
X490706Y281316D01*
X488240Y279668D01*
X486142Y277570D01*
X484494Y275104D01*
X483359Y272363D01*
X482780Y269453D01*
Y266487D01*
X483359Y263577D01*
X484494Y260836D01*
X486142Y258370D01*
X488240Y256272D01*
X490706Y254624D01*
X493447Y253489D01*
X496357Y252910D01*
X499323D01*
X502233Y253489D01*
X504974Y254624D01*
X507440Y256272D01*
X509538Y258370D01*
X511186Y260836D01*
X512321Y263577D01*
X512900Y266487D01*
Y269453D01*
X512321Y272363D01*
X511186Y275104D01*
X509538Y277570D01*
X507440Y279668D01*
X504974Y281316D01*
X502233Y282451D01*
X499323Y283030D01*
D02*
G37*
G36*
X653120Y273380D02*
X623000D01*
Y243260D01*
X653120D01*
Y273380D01*
D02*
G37*
G36*
X663993Y413131D02*
X661887D01*
X659852Y412586D01*
X658027Y411532D01*
X656538Y410043D01*
X655484Y408218D01*
X654939Y406183D01*
Y404077D01*
X655484Y402042D01*
X656538Y400217D01*
X656725Y400030D01*
Y223554D01*
X624051Y190881D01*
X623787D01*
X621752Y190336D01*
X619927Y189282D01*
X618438Y187793D01*
X617384Y185968D01*
X616839Y183933D01*
Y181827D01*
X617384Y179792D01*
X618438Y177967D01*
X619927Y176478D01*
X621752Y175424D01*
X623787Y174879D01*
X625893D01*
X627928Y175424D01*
X629753Y176478D01*
X631242Y177967D01*
X632296Y179792D01*
X632841Y181827D01*
Y182091D01*
X667335Y216585D01*
X668682Y218601D01*
X669155Y220980D01*
Y400030D01*
X669342Y400217D01*
X670396Y402042D01*
X670941Y404077D01*
Y406183D01*
X670396Y408218D01*
X669342Y410043D01*
X667853Y411532D01*
X666028Y412586D01*
X663993Y413131D01*
D02*
G37*
G36*
X561043Y194880D02*
X558077D01*
X555167Y194301D01*
X552426Y193166D01*
X549960Y191518D01*
X547862Y189420D01*
X546214Y186953D01*
X545079Y184213D01*
X544500Y181303D01*
Y178337D01*
X545079Y175427D01*
X546214Y172686D01*
X547862Y170220D01*
X549960Y168122D01*
X552426Y166474D01*
X555167Y165339D01*
X558077Y164760D01*
X561043D01*
X563953Y165339D01*
X566694Y166474D01*
X569160Y168122D01*
X571258Y170220D01*
X572906Y172686D01*
X574041Y175427D01*
X574620Y178337D01*
Y181303D01*
X574041Y184213D01*
X572906Y186953D01*
X571258Y189420D01*
X569160Y191518D01*
X566694Y193166D01*
X563953Y194301D01*
X561043Y194880D01*
D02*
G37*
G36*
X380783Y170561D02*
X378677D01*
X378456Y170502D01*
X316230D01*
X314174Y170231D01*
X312259Y169438D01*
X310614Y168176D01*
X310614Y168176D01*
X291564Y149126D01*
X290302Y147481D01*
X289509Y145566D01*
X289238Y143510D01*
X289238Y143510D01*
Y86364D01*
X289179Y86143D01*
Y84037D01*
X289724Y82002D01*
X290778Y80177D01*
X292267Y78688D01*
X294092Y77634D01*
X296127Y77089D01*
X298233D01*
X300268Y77634D01*
X302093Y78688D01*
X303582Y80177D01*
X304636Y82002D01*
X305181Y84037D01*
Y86143D01*
X305122Y86364D01*
Y140220D01*
X319520Y154618D01*
X378456D01*
X378677Y154559D01*
X380783D01*
X382818Y155104D01*
X384643Y156158D01*
X386132Y157647D01*
X387186Y159472D01*
X387731Y161507D01*
Y163613D01*
X387186Y165648D01*
X386132Y167473D01*
X384643Y168962D01*
X382818Y170016D01*
X380783Y170561D01*
D02*
G37*
G36*
X1015434Y53060D02*
X1011486D01*
X1007615Y52290D01*
X1003968Y50779D01*
X1000685Y48586D01*
X997894Y45795D01*
X995701Y42512D01*
X994190Y38865D01*
X993420Y34994D01*
Y31046D01*
X994190Y27174D01*
X995701Y23528D01*
X997894Y20245D01*
X1000685Y17454D01*
X1003968Y15261D01*
X1007615Y13750D01*
X1011486Y12980D01*
X1015434D01*
X1019305Y13750D01*
X1022952Y15261D01*
X1026235Y17454D01*
X1029026Y20245D01*
X1031219Y23528D01*
X1032730Y27174D01*
X1033500Y31046D01*
Y34994D01*
X1032730Y38865D01*
X1031219Y42512D01*
X1029026Y45795D01*
X1026235Y48586D01*
X1022952Y50779D01*
X1019305Y52290D01*
X1015434Y53060D01*
D02*
G37*
G36*
X32454Y50520D02*
X28506D01*
X24634Y49750D01*
X20988Y48239D01*
X17705Y46046D01*
X14914Y43255D01*
X12721Y39973D01*
X11210Y36326D01*
X10440Y32454D01*
Y28506D01*
X11210Y24634D01*
X12721Y20988D01*
X14914Y17705D01*
X17705Y14914D01*
X20988Y12721D01*
X24634Y11210D01*
X28506Y10440D01*
X32454D01*
X36326Y11210D01*
X39973Y12721D01*
X43255Y14914D01*
X46046Y17705D01*
X48239Y20988D01*
X49750Y24634D01*
X50520Y28506D01*
Y32454D01*
X49750Y36326D01*
X48239Y39973D01*
X46046Y43255D01*
X43255Y46046D01*
X39973Y48239D01*
X36326Y49750D01*
X32454Y50520D01*
D02*
G37*
%LPD*%
G36*
X970275Y998490D02*
X968454Y999838D01*
X966550Y1001045D01*
X964564Y1002109D01*
X962496Y1003031D01*
X960346Y1003812D01*
X958114Y1004451D01*
X955800Y1004947D01*
X953403Y1005302D01*
X950925Y1005515D01*
X948365Y1005586D01*
Y1013714D01*
X950925Y1013785D01*
X953403Y1013998D01*
X955800Y1014353D01*
X958114Y1014849D01*
X960346Y1015488D01*
X962496Y1016269D01*
X964564Y1017191D01*
X966550Y1018255D01*
X968454Y1019462D01*
X970275Y1020810D01*
Y998490D01*
D02*
G37*
G36*
X593018Y941603D02*
X592735Y941791D01*
X592383Y941960D01*
X591962Y942108D01*
X591472Y942237D01*
X590914Y942346D01*
X589590Y942505D01*
X588825Y942554D01*
X587088Y942594D01*
Y947166D01*
X587991Y947176D01*
X590286Y947325D01*
X590914Y947414D01*
X591962Y947652D01*
X592383Y947801D01*
X592735Y947969D01*
X593018Y948157D01*
Y941603D01*
D02*
G37*
G36*
X481366Y922634D02*
X480735Y921988D01*
X479217Y920260D01*
X478837Y919753D01*
X478264Y918844D01*
X478071Y918441D01*
X477942Y918073D01*
X477874Y917740D01*
X473240Y922374D01*
X473573Y922442D01*
X473941Y922571D01*
X474344Y922764D01*
X474781Y923019D01*
X475253Y923337D01*
X476301Y924161D01*
X476878Y924667D01*
X478134Y925866D01*
X481366Y922634D01*
D02*
G37*
G36*
X123545Y950509D02*
X123897Y950340D01*
X124318Y950192D01*
X124808Y950063D01*
X125366Y949954D01*
X126690Y949795D01*
X127455Y949746D01*
X129192Y949706D01*
Y945134D01*
X128289Y945124D01*
X125994Y944975D01*
X125366Y944886D01*
X124318Y944648D01*
X123897Y944500D01*
X123545Y944331D01*
X123262Y944143D01*
Y950697D01*
X123545Y950509D01*
D02*
G37*
G36*
X289316Y928389D02*
X289465Y926094D01*
X289554Y925467D01*
X289792Y924418D01*
X289940Y923997D01*
X290109Y923645D01*
X290297Y923362D01*
X283743D01*
X283931Y923645D01*
X284100Y923997D01*
X284248Y924418D01*
X284377Y924908D01*
X284486Y925467D01*
X284645Y926790D01*
X284694Y927555D01*
X284734Y929292D01*
X289306D01*
X289316Y928389D01*
D02*
G37*
G36*
X238689Y821153D02*
X238568Y820982D01*
X238463Y820738D01*
X238371Y820421D01*
X238293Y820032D01*
X238229Y819570D01*
X238144Y818430D01*
X238116Y817000D01*
X233544D01*
X233537Y817741D01*
X233364Y819991D01*
X233285Y820374D01*
X233192Y820685D01*
X233084Y820925D01*
X232961Y821093D01*
X232824Y821190D01*
X238823Y821253D01*
X238689Y821153D01*
D02*
G37*
G36*
X558728Y804443D02*
X558445Y804631D01*
X558093Y804799D01*
X557672Y804948D01*
X557182Y805077D01*
X556623Y805186D01*
X555300Y805345D01*
X554535Y805394D01*
X552798Y805434D01*
Y810006D01*
X553701Y810016D01*
X555996Y810165D01*
X556623Y810254D01*
X557672Y810492D01*
X558093Y810640D01*
X558445Y810809D01*
X558728Y810997D01*
Y804443D01*
D02*
G37*
G36*
X241722Y640217D02*
X241851Y639849D01*
X242044Y639446D01*
X242299Y639009D01*
X242617Y638537D01*
X243440Y637489D01*
X243946Y636912D01*
X245146Y635656D01*
X241914Y632424D01*
X241268Y633055D01*
X239540Y634573D01*
X239033Y634953D01*
X238124Y635526D01*
X237721Y635719D01*
X237353Y635848D01*
X237020Y635915D01*
X241654Y640550D01*
X241722Y640217D01*
D02*
G37*
G36*
X300918Y457733D02*
X300635Y457921D01*
X300283Y458089D01*
X299862Y458238D01*
X299372Y458367D01*
X298813Y458476D01*
X297490Y458635D01*
X296725Y458684D01*
X294988Y458724D01*
Y463296D01*
X295891Y463306D01*
X298186Y463455D01*
X298813Y463544D01*
X299862Y463782D01*
X300283Y463931D01*
X300635Y464099D01*
X300918Y464287D01*
Y457733D01*
D02*
G37*
G36*
X318526Y458489D02*
X318675Y456194D01*
X318764Y455566D01*
X319002Y454518D01*
X319151Y454097D01*
X319319Y453745D01*
X319507Y453462D01*
X312953D01*
X313141Y453745D01*
X313309Y454097D01*
X313458Y454518D01*
X313587Y455008D01*
X313696Y455566D01*
X313855Y456890D01*
X313904Y457655D01*
X313944Y459392D01*
X318516D01*
X318526Y458489D01*
D02*
G37*
G36*
X81316Y428604D02*
X80685Y427958D01*
X79167Y426230D01*
X78787Y425723D01*
X78214Y424814D01*
X78021Y424411D01*
X77892Y424043D01*
X77825Y423710D01*
X73190Y428344D01*
X73523Y428412D01*
X73891Y428541D01*
X74294Y428734D01*
X74731Y428989D01*
X75203Y429307D01*
X76252Y430131D01*
X76828Y430636D01*
X78084Y431836D01*
X81316Y428604D01*
D02*
G37*
G36*
X1001930Y464321D02*
X1001849Y465015D01*
X1001605Y465637D01*
X1001199Y466185D01*
X1000630Y466660D01*
X999899Y467062D01*
X999004Y467391D01*
X997948Y467647D01*
X996729Y467830D01*
X995347Y467940D01*
X993802Y467976D01*
Y476104D01*
X995347Y476141D01*
X996729Y476250D01*
X997948Y476433D01*
X999004Y476689D01*
X999899Y477018D01*
X1000630Y477420D01*
X1001199Y477895D01*
X1001605Y478444D01*
X1001849Y479065D01*
X1001930Y479760D01*
Y464321D01*
D02*
G37*
G36*
X923487Y444990D02*
X921874Y443320D01*
X919340Y440328D01*
X918417Y439005D01*
X917724Y437798D01*
X917261Y436706D01*
X917028Y435730D01*
X917025Y434869D01*
X917252Y434124D01*
X917709Y433495D01*
X906245Y444959D01*
X906874Y444502D01*
X907619Y444276D01*
X908480Y444278D01*
X909456Y444511D01*
X910548Y444974D01*
X911755Y445667D01*
X913078Y446590D01*
X914516Y447742D01*
X917739Y450737D01*
X923487Y444990D01*
D02*
G37*
G36*
X1015331Y441648D02*
X1014992Y440965D01*
X1014692Y440161D01*
X1014433Y439236D01*
X1014213Y438190D01*
X1014034Y437023D01*
X1013794Y434324D01*
X1013714Y431141D01*
X1005586D01*
X1005566Y432793D01*
X1005266Y437023D01*
X1005087Y438190D01*
X1004867Y439236D01*
X1004608Y440161D01*
X1004308Y440965D01*
X1003969Y441648D01*
X1003589Y442210D01*
X1015711D01*
X1015331Y441648D01*
D02*
G37*
G36*
X956354Y384756D02*
X956672Y384533D01*
X957117Y384336D01*
X957691Y384166D01*
X958394Y384022D01*
X959224Y383904D01*
X961271Y383746D01*
X963830Y383694D01*
Y375566D01*
X962486Y375553D01*
X958394Y375238D01*
X957691Y375094D01*
X957117Y374924D01*
X956672Y374727D01*
X956354Y374504D01*
X956165Y374255D01*
Y385005D01*
X956354Y384756D01*
D02*
G37*
G36*
X937089Y369855D02*
X935609Y370940D01*
X934035Y371911D01*
X932367Y372767D01*
X930605Y373510D01*
X928749Y374138D01*
X926799Y374652D01*
X924755Y375052D01*
X920385Y375509D01*
X918059Y375566D01*
Y383694D01*
X920385Y383751D01*
X922617Y383922D01*
X924755Y384208D01*
X926799Y384608D01*
X928749Y385122D01*
X930605Y385750D01*
X932367Y386492D01*
X934035Y387349D01*
X935609Y388320D01*
X937089Y389405D01*
Y369855D01*
D02*
G37*
G36*
X815640Y400745D02*
X815780Y398998D01*
X816013Y397351D01*
X816338Y395802D01*
X816757Y394353D01*
X817269Y393002D01*
X817874Y391750D01*
X818572Y390598D01*
X819363Y389544D01*
X820247Y388589D01*
X803739D01*
Y369855D01*
X802259Y370940D01*
X800685Y371911D01*
X799017Y372767D01*
X797255Y373510D01*
X795399Y374138D01*
X793449Y374652D01*
X791405Y375052D01*
X789267Y375337D01*
X787035Y375509D01*
X784709Y375566D01*
Y383694D01*
X787035Y383751D01*
X791405Y384208D01*
X793449Y384608D01*
X795399Y385122D01*
X797255Y385750D01*
X799017Y386492D01*
X800685Y387349D01*
X802259Y388320D01*
X803208Y389016D01*
X803697Y389544D01*
X804488Y390598D01*
X805186Y391750D01*
X805791Y393002D01*
X806303Y394353D01*
X806722Y395802D01*
X807047Y397351D01*
X807280Y398998D01*
X807420Y400745D01*
X807466Y402590D01*
X815594D01*
X815640Y400745D01*
D02*
G37*
G36*
X852551Y388320D02*
X854125Y387349D01*
X855793Y386492D01*
X857555Y385750D01*
X859411Y385122D01*
X861361Y384608D01*
X863405Y384208D01*
X865543Y383922D01*
X867775Y383751D01*
X870101Y383694D01*
Y375566D01*
X867775Y375509D01*
X863405Y375052D01*
X861361Y374652D01*
X859852Y374254D01*
X861343Y372306D01*
X862813Y370600D01*
X863343Y370039D01*
X863941Y369503D01*
X866331Y367775D01*
X868951Y366260D01*
X871799Y364959D01*
X874876Y363870D01*
X878182Y362995D01*
X881716Y362333D01*
X885479Y361884D01*
X889471Y361649D01*
X893692Y361626D01*
X874697Y336702D01*
X873894Y339467D01*
X872895Y342222D01*
X871699Y344967D01*
X870307Y347702D01*
X868718Y350428D01*
X866933Y353143D01*
X862772Y358543D01*
X860528Y361080D01*
X858942Y362335D01*
X857247Y363467D01*
X855478Y364448D01*
X853637Y365275D01*
X851722Y365951D01*
X849735Y366474D01*
X847674Y366845D01*
X845541Y367064D01*
X843335Y367130D01*
X851071Y376960D01*
Y389405D01*
X852551Y388320D01*
D02*
G37*
G36*
X719201D02*
X720775Y387349D01*
X722443Y386492D01*
X724205Y385750D01*
X726061Y385122D01*
X728011Y384608D01*
X730055Y384208D01*
X732193Y383922D01*
X734425Y383751D01*
X736751Y383694D01*
Y375566D01*
X734425Y375509D01*
X730055Y375052D01*
X728011Y374652D01*
X726502Y374254D01*
X727993Y372306D01*
X729463Y370600D01*
X729993Y370039D01*
X730591Y369503D01*
X732981Y367775D01*
X735601Y366260D01*
X738449Y364959D01*
X741526Y363870D01*
X744832Y362995D01*
X748366Y362333D01*
X752129Y361884D01*
X756121Y361649D01*
X760342Y361626D01*
X741347Y336702D01*
X740544Y339467D01*
X739545Y342222D01*
X738349Y344967D01*
X736957Y347702D01*
X735368Y350428D01*
X733583Y353143D01*
X729422Y358543D01*
X727178Y361080D01*
X725592Y362335D01*
X723897Y363467D01*
X722128Y364448D01*
X720287Y365275D01*
X718372Y365951D01*
X716385Y366474D01*
X714324Y366845D01*
X712191Y367064D01*
X709985Y367130D01*
X717721Y376960D01*
Y389405D01*
X719201Y388320D01*
D02*
G37*
G36*
X914099Y337021D02*
X914334Y333029D01*
X914783Y329266D01*
X915445Y325732D01*
X916320Y322426D01*
X917409Y319349D01*
X918710Y316501D01*
X920225Y313881D01*
X921953Y311491D01*
X923894Y309328D01*
X916353Y305375D01*
X913678Y307947D01*
X908298Y312501D01*
X905593Y314483D01*
X900153Y317857D01*
X897417Y319249D01*
X894672Y320445D01*
X891917Y321444D01*
X889152Y322247D01*
X914076Y341242D01*
X914099Y337021D01*
D02*
G37*
G36*
X780749D02*
X780984Y333029D01*
X781433Y329266D01*
X782095Y325732D01*
X782970Y322426D01*
X784059Y319349D01*
X785360Y316501D01*
X786875Y313881D01*
X788603Y311491D01*
X790544Y309328D01*
X783003Y305375D01*
X780328Y307947D01*
X774948Y312501D01*
X772243Y314483D01*
X766803Y317857D01*
X764067Y319249D01*
X761322Y320445D01*
X758567Y321444D01*
X755802Y322247D01*
X780726Y341242D01*
X780749Y337021D01*
D02*
G37*
G36*
X934081Y299189D02*
X939200Y294780D01*
X940783Y293624D01*
X943762Y291781D01*
X945158Y291095D01*
X946493Y290565D01*
X947766Y290192D01*
X937089Y281791D01*
Y268255D01*
X935609Y269340D01*
X934035Y270311D01*
X932367Y271168D01*
X930605Y271910D01*
X928749Y272538D01*
X926799Y273052D01*
X924755Y273452D01*
X922617Y273738D01*
X920385Y273909D01*
X918059Y273966D01*
Y282094D01*
X920385Y282151D01*
X924755Y282608D01*
X926799Y283008D01*
X928749Y283522D01*
X930605Y284150D01*
X931692Y284608D01*
X931201Y286472D01*
X930526Y288387D01*
X929698Y290228D01*
X928718Y291997D01*
X927585Y293692D01*
X926300Y295315D01*
X924863Y296865D01*
X932251Y300972D01*
X934081Y299189D01*
D02*
G37*
G36*
X852551Y286720D02*
X854125Y285749D01*
X855793Y284892D01*
X857555Y284150D01*
X859411Y283522D01*
X861361Y283008D01*
X863405Y282608D01*
X865543Y282322D01*
X867775Y282151D01*
X870101Y282094D01*
Y273966D01*
X867775Y273909D01*
X863405Y273452D01*
X861361Y273052D01*
X859411Y272538D01*
X857555Y271910D01*
X855793Y271168D01*
X854125Y270311D01*
X852551Y269340D01*
X851071Y268255D01*
Y287805D01*
X852551Y286720D01*
D02*
G37*
G36*
X800731Y299189D02*
X805850Y294780D01*
X807433Y293624D01*
X810412Y291781D01*
X811808Y291095D01*
X813143Y290565D01*
X814416Y290192D01*
X803739Y281791D01*
Y268255D01*
X802259Y269340D01*
X800685Y270311D01*
X799017Y271168D01*
X797255Y271910D01*
X795399Y272538D01*
X793449Y273052D01*
X791405Y273452D01*
X789267Y273738D01*
X787035Y273909D01*
X784709Y273966D01*
Y282094D01*
X787035Y282151D01*
X791405Y282608D01*
X793449Y283008D01*
X795399Y283522D01*
X797255Y284150D01*
X798342Y284608D01*
X797851Y286472D01*
X797176Y288387D01*
X796348Y290228D01*
X795368Y291997D01*
X794235Y293692D01*
X792950Y295315D01*
X791513Y296865D01*
X798901Y300972D01*
X800731Y299189D01*
D02*
G37*
G36*
X719201Y286720D02*
X720775Y285749D01*
X722443Y284892D01*
X724205Y284150D01*
X726061Y283522D01*
X728011Y283008D01*
X730055Y282608D01*
X732193Y282322D01*
X734425Y282151D01*
X736751Y282094D01*
Y273966D01*
X734425Y273909D01*
X730055Y273452D01*
X728011Y273052D01*
X726061Y272538D01*
X724205Y271910D01*
X722443Y271168D01*
X720775Y270311D01*
X719201Y269340D01*
X717721Y268255D01*
Y287805D01*
X719201Y286720D01*
D02*
G37*
G36*
X123660Y414935D02*
X123327Y414868D01*
X122959Y414739D01*
X122556Y414546D01*
X122119Y414291D01*
X121647Y413973D01*
X120598Y413149D01*
X120022Y412644D01*
X118766Y411444D01*
X115534Y414676D01*
X116165Y415322D01*
X117683Y417050D01*
X118063Y417557D01*
X118636Y418466D01*
X118829Y418869D01*
X118958Y419237D01*
X119025Y419570D01*
X123660Y414935D01*
D02*
G37*
G36*
X135207Y406768D02*
X135030Y406406D01*
X134875Y405983D01*
X134740Y405500D01*
X134626Y404955D01*
X134532Y404350D01*
X134408Y402957D01*
X134366Y401320D01*
X129794D01*
X129784Y402169D01*
X129628Y404350D01*
X129534Y404955D01*
X129420Y405500D01*
X129285Y405983D01*
X129129Y406406D01*
X128953Y406768D01*
X128756Y407069D01*
X135404D01*
X135207Y406768D01*
D02*
G37*
G36*
X179545Y404053D02*
X179550Y403113D01*
X179840Y398897D01*
X179919Y398633D01*
X180006Y398454D01*
X173468Y398974D01*
X173754Y399325D01*
X174010Y399732D01*
X174235Y400196D01*
X174431Y400717D01*
X174597Y401295D01*
X174732Y401929D01*
X174837Y402620D01*
X174958Y404172D01*
X174973Y405033D01*
X179545Y404053D01*
D02*
G37*
G36*
X194325Y399161D02*
X194156Y398809D01*
X194008Y398388D01*
X193879Y397898D01*
X193770Y397340D01*
X193611Y396016D01*
X193562Y395251D01*
X193522Y393514D01*
X188950D01*
X188940Y394417D01*
X188791Y396712D01*
X188702Y397340D01*
X188464Y398388D01*
X188316Y398809D01*
X188147Y399161D01*
X187959Y399444D01*
X194513D01*
X194325Y399161D01*
D02*
G37*
G36*
X34645Y390107D02*
X34997Y389939D01*
X35418Y389790D01*
X35908Y389661D01*
X36467Y389552D01*
X37790Y389393D01*
X38555Y389344D01*
X40292Y389304D01*
Y384732D01*
X39389Y384722D01*
X37094Y384573D01*
X36467Y384484D01*
X35418Y384246D01*
X34997Y384098D01*
X34645Y383929D01*
X34362Y383741D01*
Y390295D01*
X34645Y390107D01*
D02*
G37*
G36*
X471098Y382803D02*
X470815Y382991D01*
X470463Y383159D01*
X470042Y383308D01*
X469552Y383437D01*
X468993Y383546D01*
X467670Y383705D01*
X466905Y383754D01*
X465168Y383794D01*
Y388366D01*
X466071Y388376D01*
X468366Y388525D01*
X468993Y388614D01*
X470042Y388852D01*
X470463Y389001D01*
X470815Y389169D01*
X471098Y389357D01*
Y382803D01*
D02*
G37*
G36*
X477942Y386217D02*
X478071Y385849D01*
X478264Y385446D01*
X478519Y385009D01*
X478837Y384537D01*
X479660Y383489D01*
X480167Y382912D01*
X481366Y381656D01*
X478134Y378424D01*
X477488Y379055D01*
X475760Y380573D01*
X475253Y380953D01*
X474344Y381526D01*
X473941Y381719D01*
X473573Y381848D01*
X473240Y381916D01*
X477874Y386550D01*
X477942Y386217D01*
D02*
G37*
G36*
X286948Y325780D02*
X286665Y325968D01*
X286313Y326137D01*
X285892Y326285D01*
X285402Y326414D01*
X284844Y326523D01*
X283520Y326682D01*
X282755Y326731D01*
X281018Y326771D01*
Y331343D01*
X281921Y331353D01*
X284216Y331502D01*
X284844Y331591D01*
X285892Y331829D01*
X286313Y331978D01*
X286665Y332146D01*
X286948Y332334D01*
Y325780D01*
D02*
G37*
G36*
X293792Y329194D02*
X293921Y328826D01*
X294114Y328423D01*
X294369Y327986D01*
X294687Y327514D01*
X295511Y326465D01*
X296017Y325890D01*
X297216Y324633D01*
X293984Y321401D01*
X293338Y322032D01*
X291610Y323550D01*
X291103Y323930D01*
X290194Y324503D01*
X289791Y324696D01*
X289423Y324825D01*
X289090Y324893D01*
X293724Y329527D01*
X293792Y329194D01*
D02*
G37*
G36*
X558079Y314605D02*
X557910Y314253D01*
X557762Y313832D01*
X557633Y313342D01*
X557524Y312784D01*
X557365Y311460D01*
X557316Y310695D01*
X557276Y308958D01*
X552704D01*
X552694Y309861D01*
X552545Y312156D01*
X552456Y312784D01*
X552218Y313832D01*
X552070Y314253D01*
X551901Y314605D01*
X551713Y314888D01*
X558267D01*
X558079Y314605D01*
D02*
G37*
G36*
X255198Y298983D02*
X254915Y299171D01*
X254563Y299340D01*
X254142Y299488D01*
X253652Y299617D01*
X253093Y299726D01*
X251770Y299885D01*
X251005Y299934D01*
X249268Y299974D01*
Y304546D01*
X250171Y304556D01*
X252466Y304705D01*
X253093Y304794D01*
X254142Y305032D01*
X254563Y305180D01*
X254915Y305349D01*
X255198Y305537D01*
Y298983D01*
D02*
G37*
G36*
X229968Y305349D02*
X230320Y305180D01*
X230741Y305032D01*
X231231Y304903D01*
X231789Y304794D01*
X233113Y304635D01*
X233878Y304586D01*
X235615Y304546D01*
Y299974D01*
X234712Y299964D01*
X232417Y299815D01*
X231789Y299726D01*
X230741Y299488D01*
X230320Y299340D01*
X229968Y299171D01*
X229685Y298983D01*
Y305537D01*
X229968Y305349D01*
D02*
G37*
G36*
X218795Y293919D02*
X219147Y293750D01*
X219568Y293602D01*
X220058Y293473D01*
X220616Y293364D01*
X221940Y293205D01*
X222705Y293156D01*
X224442Y293116D01*
Y288544D01*
X223539Y288534D01*
X221244Y288385D01*
X220616Y288296D01*
X219568Y288058D01*
X219147Y287910D01*
X218795Y287741D01*
X218512Y287553D01*
Y294107D01*
X218795Y293919D01*
D02*
G37*
G36*
X252762Y269915D02*
X254490Y268397D01*
X254997Y268017D01*
X255906Y267444D01*
X256309Y267251D01*
X256677Y267122D01*
X257010Y267055D01*
X252376Y262420D01*
X252308Y262753D01*
X252179Y263121D01*
X251986Y263524D01*
X251731Y263961D01*
X251413Y264433D01*
X250589Y265481D01*
X250084Y266057D01*
X248884Y267314D01*
X252116Y270546D01*
X252762Y269915D01*
D02*
G37*
G36*
X416648Y249522D02*
X415002Y250760D01*
X413334Y251867D01*
X411641Y252843D01*
X409926Y253690D01*
X408187Y254406D01*
X406425Y254992D01*
X404640Y255448D01*
X402831Y255774D01*
X401000Y255969D01*
X399145Y256034D01*
Y260606D01*
X401000Y260671D01*
X402831Y260867D01*
X404640Y261192D01*
X406425Y261648D01*
X408187Y262234D01*
X409926Y262950D01*
X411641Y263797D01*
X413334Y264773D01*
X415002Y265880D01*
X416648Y267118D01*
Y249522D01*
D02*
G37*
G36*
X611711Y231180D02*
X611907Y229348D01*
X612232Y227540D01*
X612688Y225754D01*
X613274Y223992D01*
X613990Y222254D01*
X614837Y220538D01*
X615814Y218846D01*
X616921Y217177D01*
X618158Y215532D01*
X600563D01*
X601800Y217177D01*
X602907Y218846D01*
X603884Y220538D01*
X604730Y222254D01*
X605446Y223992D01*
X606032Y225754D01*
X606488Y227540D01*
X606814Y229348D01*
X607009Y231180D01*
X607074Y233035D01*
X611646D01*
X611711Y231180D01*
D02*
G37*
G36*
X496476Y170111D02*
X495074Y170870D01*
X493594Y171548D01*
X492037Y172147D01*
X490402Y172666D01*
X488690Y173105D01*
X486901Y173465D01*
X483091Y173944D01*
X481069Y174063D01*
X478971Y174103D01*
X477468Y178675D01*
X479090Y178764D01*
X480718Y179031D01*
X482354Y179476D01*
X483997Y180098D01*
X485647Y180898D01*
X487304Y181876D01*
X488968Y183032D01*
X490639Y184366D01*
X492317Y185878D01*
X494003Y187567D01*
X496476Y170111D01*
D02*
G37*
G36*
X444256Y107969D02*
X444405Y105674D01*
X444494Y105047D01*
X444732Y103998D01*
X444880Y103577D01*
X445049Y103225D01*
X445237Y102942D01*
X438683D01*
X438871Y103225D01*
X439039Y103577D01*
X439188Y103998D01*
X439317Y104488D01*
X439426Y105047D01*
X439585Y106370D01*
X439634Y107135D01*
X439674Y108872D01*
X444246D01*
X444256Y107969D01*
D02*
G37*
G36*
X446192Y100467D02*
X446321Y100099D01*
X446514Y99696D01*
X446769Y99259D01*
X447087Y98787D01*
X447910Y97739D01*
X448416Y97163D01*
X449616Y95906D01*
X446384Y92674D01*
X445738Y93305D01*
X444010Y94823D01*
X443503Y95203D01*
X442594Y95776D01*
X442191Y95969D01*
X441823Y96098D01*
X441490Y96166D01*
X446124Y100800D01*
X446192Y100467D01*
D02*
G37*
G36*
X524438Y85623D02*
X524155Y85811D01*
X523803Y85979D01*
X523382Y86128D01*
X522892Y86257D01*
X522333Y86366D01*
X521010Y86525D01*
X520245Y86574D01*
X518508Y86614D01*
Y91186D01*
X519411Y91196D01*
X521706Y91345D01*
X522333Y91434D01*
X523382Y91672D01*
X523803Y91820D01*
X524155Y91989D01*
X524438Y92177D01*
Y85623D01*
D02*
G37*
G36*
X422666Y78759D02*
X422815Y76464D01*
X422904Y75837D01*
X423142Y74788D01*
X423290Y74367D01*
X423459Y74015D01*
X423647Y73732D01*
X417093D01*
X417281Y74015D01*
X417449Y74367D01*
X417598Y74788D01*
X417727Y75278D01*
X417836Y75837D01*
X417995Y77160D01*
X418044Y77925D01*
X418084Y79662D01*
X422656D01*
X422666Y78759D01*
D02*
G37*
G36*
X159299Y312065D02*
X159130Y311713D01*
X158982Y311292D01*
X158853Y310802D01*
X158744Y310243D01*
X158585Y308920D01*
X158536Y308155D01*
X158496Y306418D01*
X153924D01*
X153914Y307321D01*
X153765Y309616D01*
X153676Y310243D01*
X153438Y311292D01*
X153289Y311713D01*
X153121Y312065D01*
X152933Y312348D01*
X159487D01*
X159299Y312065D01*
D02*
G37*
G36*
X234229Y259995D02*
X234060Y259643D01*
X233912Y259222D01*
X233783Y258732D01*
X233674Y258174D01*
X233515Y256850D01*
X233466Y256085D01*
X233426Y254348D01*
X228854D01*
X228844Y255251D01*
X228695Y257546D01*
X228606Y258174D01*
X228368Y259222D01*
X228220Y259643D01*
X228051Y259995D01*
X227863Y260278D01*
X234417D01*
X234229Y259995D01*
D02*
G37*
G36*
X192319D02*
X192150Y259643D01*
X192002Y259222D01*
X191873Y258732D01*
X191764Y258174D01*
X191605Y256850D01*
X191556Y256085D01*
X191516Y254348D01*
X186944D01*
X186934Y255251D01*
X186785Y257546D01*
X186696Y258174D01*
X186458Y259222D01*
X186310Y259643D01*
X186141Y259995D01*
X185953Y260278D01*
X192507D01*
X192319Y259995D01*
D02*
G37*
G36*
X217206Y184764D02*
X216575Y184118D01*
X215057Y182390D01*
X214677Y181883D01*
X214104Y180974D01*
X213911Y180571D01*
X213782Y180203D01*
X213715Y179870D01*
X209080Y184505D01*
X209413Y184572D01*
X209781Y184701D01*
X210184Y184894D01*
X210621Y185149D01*
X211093Y185467D01*
X212141Y186290D01*
X212717Y186796D01*
X213974Y187996D01*
X217206Y184764D01*
D02*
G37*
G36*
X212639Y177445D02*
X212470Y177093D01*
X212322Y176672D01*
X212193Y176182D01*
X212084Y175623D01*
X211925Y174300D01*
X211876Y173535D01*
X211836Y171798D01*
X207264D01*
X207254Y172701D01*
X207105Y174996D01*
X207016Y175623D01*
X206778Y176672D01*
X206630Y177093D01*
X206461Y177445D01*
X206273Y177728D01*
X212827D01*
X212639Y177445D01*
D02*
G37*
G36*
X191505Y169637D02*
X194441Y167068D01*
X194761Y166863D01*
X195032Y166721D01*
X195255Y166643D01*
X190143Y163011D01*
X190145Y163298D01*
X190089Y163610D01*
X189978Y163949D01*
X189810Y164314D01*
X189585Y164705D01*
X189304Y165123D01*
X188966Y165566D01*
X188121Y166532D01*
X187614Y167055D01*
X190847Y170288D01*
X191505Y169637D01*
D02*
G37*
G36*
X547919Y116485D02*
X547751Y116133D01*
X547602Y115712D01*
X547473Y115222D01*
X547364Y114663D01*
X547205Y113340D01*
X547156Y112575D01*
X547116Y110838D01*
X542544D01*
X542534Y111741D01*
X542385Y114036D01*
X542296Y114663D01*
X542058Y115712D01*
X541909Y116133D01*
X541741Y116485D01*
X541553Y116768D01*
X548107D01*
X547919Y116485D01*
D02*
G37*
G36*
X666029Y402235D02*
X665861Y401883D01*
X665712Y401462D01*
X665583Y400972D01*
X665474Y400414D01*
X665315Y399090D01*
X665266Y398325D01*
X665226Y396588D01*
X660654D01*
X660644Y397491D01*
X660495Y399786D01*
X660406Y400414D01*
X660168Y401462D01*
X660020Y401883D01*
X659851Y402235D01*
X659663Y402518D01*
X666217D01*
X666029Y402235D01*
D02*
G37*
G36*
X632496Y187304D02*
X631865Y186658D01*
X630347Y184930D01*
X629967Y184423D01*
X629394Y183514D01*
X629201Y183111D01*
X629072Y182743D01*
X629005Y182410D01*
X624370Y187045D01*
X624703Y187112D01*
X625071Y187241D01*
X625474Y187434D01*
X625911Y187689D01*
X626383Y188007D01*
X627431Y188831D01*
X628008Y189336D01*
X629264Y190536D01*
X632496Y187304D01*
D02*
G37*
D100*
X808520Y455770D02*
D03*
D101*
X908520Y435770D02*
D03*
D102*
X35730Y1089460D02*
D03*
X1009650Y472040D02*
D03*
D103*
X35730Y1064460D02*
D03*
X1009650Y447040D02*
D03*
D104*
X979170Y1056640D02*
D03*
Y1009650D02*
D03*
D105*
Y962660D02*
D03*
D108*
X57150Y627380D02*
Y666750D01*
X177259Y412209D02*
X201930Y436880D01*
X227330D02*
X242570Y421640D01*
X201930Y436880D02*
X227330D01*
X225718Y918210D02*
X239688Y904240D01*
X317500D01*
X146050Y918210D02*
X225718D01*
X662940Y220980D02*
Y405130D01*
X624840Y182880D02*
X662940Y220980D01*
X289560Y329057D02*
X360297Y258320D01*
X423660D01*
X511302Y247826D02*
X523240Y259764D01*
X457200Y187960D02*
X511302Y242062D01*
X523240Y259764D02*
Y294640D01*
X511302Y242062D02*
Y247826D01*
X518160Y234950D02*
Y244985D01*
X420370Y137160D02*
X518160Y234950D01*
Y244985D02*
X554990Y281815D01*
Y317500D01*
X420370Y71120D02*
Y137160D01*
X341630Y187960D02*
X457200D01*
X505460Y312420D02*
X523240Y294640D01*
X505460Y312420D02*
Y331470D01*
X523240Y349250D01*
X553720D01*
X609360Y293610D01*
Y208520D02*
Y293610D01*
X473710Y386080D02*
X495300Y364490D01*
X558800D01*
X607601Y315689D01*
X611411D02*
X612140Y314960D01*
X607601Y315689D02*
X611411D01*
X299720Y229870D02*
X341630Y187960D01*
X299720Y229870D02*
Y283210D01*
X265430Y317500D02*
X299720Y283210D01*
X132080Y401320D02*
X215900Y317500D01*
X265430D01*
X132080Y401320D02*
Y409621D01*
X111229Y407140D02*
X123190Y419100D01*
X111229Y398250D02*
Y407140D01*
X99998Y387018D02*
X111229Y398250D01*
X242570Y388620D02*
Y421640D01*
X177259Y396842D02*
Y412209D01*
X176530Y396113D02*
X177259Y396842D01*
X242570Y388620D02*
X267970Y363220D01*
X379782D02*
X402642Y386080D01*
X473710D01*
X267970Y363220D02*
X379782D01*
X191236Y361214D02*
X223393Y329057D01*
X191236Y361214D02*
Y402056D01*
X223393Y329057D02*
X289560D01*
X233680Y784860D02*
X312420D01*
X210351Y808189D02*
Y828139D01*
Y808189D02*
X233680Y784860D01*
X235751Y828139D02*
X235830Y828059D01*
Y817000D02*
Y828059D01*
Y817000D02*
X245110Y807720D01*
X561340D01*
X212090Y416687D02*
X229870Y398907D01*
Y356870D02*
Y398907D01*
X31750Y387018D02*
X99998D01*
X20320Y504190D02*
X77470Y447040D01*
X20320Y241300D02*
Y504190D01*
Y241300D02*
X54610Y207010D01*
X20320Y668020D02*
X27940Y675640D01*
X20320Y504190D02*
Y668020D01*
X453390Y88900D02*
X527050D01*
X441960Y100330D02*
Y147320D01*
Y100330D02*
X453390Y88900D01*
X457200Y129540D02*
X483870Y102870D01*
X457200Y129540D02*
Y144780D01*
X441960Y147320D02*
X471029Y176389D01*
X498730D01*
X337820Y236220D02*
X372110D01*
X399810Y208520D02*
X452360D01*
X372110Y236220D02*
X399810Y208520D01*
X304800Y35560D02*
X506730D01*
X209550Y130810D02*
X304800Y35560D01*
X209550Y130810D02*
Y180340D01*
X544830Y73660D02*
Y119380D01*
X506730Y35560D02*
X544830Y73660D01*
X209550Y180340D02*
X231140Y201930D01*
X110490Y461010D02*
X303530D01*
X73660Y424180D02*
X110490Y461010D01*
X498730Y176389D02*
X502160Y179820D01*
X384810Y381000D02*
X393700Y389890D01*
Y416560D01*
X237490Y640080D02*
X316230Y561340D01*
Y450850D02*
Y561340D01*
X189230Y168671D02*
X194310Y163591D01*
X189230Y168671D02*
Y262890D01*
X194310Y162560D02*
Y163591D01*
X215900Y290830D02*
X228600D01*
X256540Y262890D01*
X227073Y302260D02*
X257810D01*
X231140Y201930D02*
Y262890D01*
X156210Y267731D02*
X160020Y263921D01*
Y262890D02*
Y263921D01*
X156210Y267731D02*
Y314960D01*
X317500Y904240D02*
Y1024890D01*
X158750Y1098550D02*
X243840D01*
X317500Y1024890D01*
X500380Y944880D02*
X595630D01*
X473710Y918210D02*
X500380Y944880D01*
X317500Y867171D02*
Y904240D01*
X311150Y860821D02*
X317500Y867171D01*
X311150Y859790D02*
Y860821D01*
X274320Y947420D02*
X287020Y934720D01*
Y920750D02*
Y934720D01*
X120650Y947420D02*
X274320D01*
D109*
X640080Y153670D02*
X709930Y223520D01*
X549910Y153670D02*
X640080D01*
X530860Y172720D02*
X549910Y153670D01*
X530860Y172720D02*
Y236220D01*
X363289Y995680D02*
X925830D01*
X939800Y1009650D01*
X963830Y379630D02*
X1009650Y425450D01*
Y447040D01*
X847845Y379630D02*
X963830D01*
X844710Y435770D02*
X908520D01*
X811530Y379630D02*
Y402590D01*
X844710Y435770D01*
X939800Y1009650D02*
X979170D01*
X316230Y162560D02*
X379730D01*
X297180Y143510D02*
X316230Y162560D01*
X297180Y85090D02*
Y143510D01*
X908520Y435770D02*
X944790Y472040D01*
X847845Y379630D02*
X885845Y341630D01*
X714495Y379630D02*
X752495Y341630D01*
X760730D01*
Y333395D02*
X811530Y282595D01*
Y278030D02*
Y282595D01*
X760730Y333395D02*
Y341630D01*
X709930Y278030D02*
X811530D01*
X843280D02*
X944880D01*
X894080Y333395D02*
X944880Y282595D01*
Y278030D02*
Y282595D01*
X894080Y333395D02*
Y341630D01*
X885845D02*
X894080D01*
X843280Y379630D02*
X847845D01*
X944790Y472040D02*
X1009650D01*
X709930Y379630D02*
X714495D01*
X811530D01*
D112*
X944880Y278030D02*
D03*
X843280D02*
D03*
X944880Y379630D02*
D03*
X843280D02*
D03*
X709930D02*
D03*
X811530D02*
D03*
X709930Y278030D02*
D03*
X811530D02*
D03*
D113*
X894080Y341630D02*
D03*
X760730D02*
D03*
D114*
X530860Y325120D02*
D03*
X497840Y267970D02*
D03*
X563880D02*
D03*
X638060Y315720D02*
D03*
X609360Y365520D02*
D03*
X559560Y394220D02*
D03*
X502160D02*
D03*
X452360Y365520D02*
D03*
X423660Y315720D02*
D03*
Y258320D02*
D03*
X452360Y208520D02*
D03*
X502160Y179820D02*
D03*
X559560D02*
D03*
X609360Y208520D02*
D03*
D115*
X638060Y258320D02*
D03*
D116*
X905351Y513138D02*
D03*
X155351D02*
D03*
X905351Y823138D02*
D03*
X155351D02*
D03*
D117*
X591351Y828139D02*
D03*
X565951D02*
D03*
X540551D02*
D03*
X515151D02*
D03*
X489751D02*
D03*
X464351D02*
D03*
X438951D02*
D03*
X413551D02*
D03*
X388151D02*
D03*
X362751D02*
D03*
X337351D02*
D03*
X311951D02*
D03*
X286551D02*
D03*
X261151D02*
D03*
X235751D02*
D03*
D118*
X210351D02*
D03*
D119*
X895130Y1040130D02*
D03*
X166130D02*
D03*
D120*
X810180D02*
D03*
X254030D02*
D03*
D121*
X63290Y971970D02*
D03*
Y897470D02*
D03*
D122*
X25290Y973470D02*
D03*
Y895970D02*
D03*
D123*
X52790Y909720D02*
D03*
Y959720D02*
D03*
D124*
X171450Y246380D02*
D03*
D125*
Y220980D02*
D03*
X146050Y246380D02*
D03*
Y220980D02*
D03*
X120650Y246380D02*
D03*
Y220980D02*
D03*
X95250Y246380D02*
D03*
Y220980D02*
D03*
X69850Y246380D02*
D03*
Y220980D02*
D03*
X1013460Y33020D02*
D03*
X30480Y30480D02*
D03*
Y1146810D02*
D03*
X1014730D02*
D03*
D126*
X146050Y918210D02*
D03*
D127*
X57150Y627380D02*
D03*
Y666750D02*
D03*
X662940Y405130D02*
D03*
X132080Y409621D02*
D03*
X123190Y419100D02*
D03*
X176530Y396113D02*
D03*
X191236Y402056D02*
D03*
X289560Y329057D02*
D03*
X312420Y784860D02*
D03*
X561340Y807720D02*
D03*
X229870Y356870D02*
D03*
X212090Y416687D02*
D03*
X31750Y387018D02*
D03*
X441960Y100330D02*
D03*
X457200Y144780D02*
D03*
X483870Y102870D02*
D03*
X337820Y236220D02*
D03*
X544830Y119380D02*
D03*
X77470Y447040D02*
D03*
X54610Y207010D02*
D03*
X73660Y424180D02*
D03*
X27940Y675640D02*
D03*
X363220Y995680D02*
D03*
X530860Y236220D02*
D03*
X709930Y223520D02*
D03*
X379730Y162560D02*
D03*
X297180Y85090D02*
D03*
X554990Y317500D02*
D03*
X420370Y71120D02*
D03*
X527050Y88900D02*
D03*
X393700Y416560D02*
D03*
X384810Y381000D02*
D03*
X237490Y640080D02*
D03*
X316230Y450850D02*
D03*
X303530Y461010D02*
D03*
X473710Y386080D02*
D03*
X612140Y314960D02*
D03*
X624840Y182880D02*
D03*
X194310Y162560D02*
D03*
X189230Y262890D02*
D03*
X256540D02*
D03*
X257810Y302260D02*
D03*
X215900Y290830D02*
D03*
X227073Y302260D02*
D03*
X231140Y262890D02*
D03*
X209550Y180340D02*
D03*
X160020Y262890D02*
D03*
X156210Y314960D02*
D03*
X158750Y1098550D02*
D03*
X595630Y944880D02*
D03*
X473710Y918210D02*
D03*
X317500Y904240D02*
D03*
X311150Y859790D02*
D03*
X287020Y920750D02*
D03*
X120650Y947420D02*
D03*
M02*
